<?xml version="1.0" encoding="UTF-8" standalone="no"?> <!-- Generator: Gravit.io --> <svg xmlns="http://www.w3.org/2000/svg" xmlns:xlink="http://www.w3.org/1999/xlink" style="isolation:isolate" viewBox="0 0 1875 1875" width="1875pt" height="1875pt"><g id="Group"><path d=" M 81.663 585.915 C 41.274 675.436 -18.509 846.823 5.52 1059.989 C 36.348 1333.49 188.976 1549.112 337.44 1670.274 C 830.089 2072.337 1731.947 1812.595 1851.376 1433.861 C 1873.044 1365.146 1866.95 1298.878 1859.459 1217.332 C 1835.619 957.987 1710.034 880.895 1625.583 605.519 C 1548.726 354.91 1624.503 326.71 1552.629 215.296 C 1396.722 -26.387 946.686 -38.569 637.023 77.302 C 518.082 121.808 229.456 258.329 81.663 585.915 Z " id="Path" fill="rgb(219,202,252)"></path><path d=" M 1808.59 1343.672 L 712.902 1191.292 C 685.394 1187.786 664.777 1164.375 664.777 1136.642 L 650.5 410.679 C 649.978 384.136 664.664 359.484 688.452 347.697 C 688.594 347.626 688.737 347.555 688.88 347.486 C 696.085 343.975 704.382 342.437 713.004 343.537 L 1805.431 482.854 C 1832.939 486.362 1853.557 509.773 1853.557 537.506 L 1853.557 1288.146 C 1853.557 1301.569 1847.422 1313.412 1837.923 1321.219 C 1829.178 1328.415 1808.59 1343.672 1808.59 1343.672 Z " id="Path" fill="rgb(133,104,204)"></path><path d=" M 1775.151 1353.823 L 682.724 1214.509 C 655.214 1211.003 634.599 1187.592 634.599 1159.86 L 634.599 409.22 C 634.599 383.426 657.241 363.488 682.826 366.751 L 1775.252 506.067 C 1802.761 509.575 1823.379 532.986 1823.379 560.719 L 1823.379 1311.353 C 1823.379 1337.149 1800.732 1357.085 1775.151 1353.823 Z " id="Path" fill="rgb(145,112,207)"></path><path d=" M 1751.933 1322.891 L 708.836 1189.855 C 688.829 1187.307 673.834 1170.286 673.834 1150.116 L 673.834 426.056 C 673.834 408.828 688.951 395.513 706.043 397.692 L 1749.151 530.718 C 1769.158 533.269 1784.14 550.293 1784.14 570.461 L 1784.14 1294.526 C 1784.14 1311.751 1769.025 1325.061 1751.933 1322.891 Z " id="Path" fill="rgb(219,202,252)"></path><path d=" M 1137.826 1795.9 L 14.314 1651.011 C 5.52 1649.88 0.562 1642.521 0.674 1635.152 C 0.753 1630.077 1.163 1594.313 1.163 1594.313 L 595.225 1254.706 C 624.989 1237.706 663.498 1231.142 697.502 1235.494 L 1806.827 1378.6 C 1813.503 1379.456 1819.231 1383.788 1821.871 1389.984 L 1823.654 1394.153 C 1823.654 1394.153 1822.706 1423.985 1823.094 1430.946 C 1823.399 1436.399 1820.943 1442.025 1815.236 1445.276 L 1236.087 1776.413 C 1206.326 1793.413 1171.826 1800.252 1137.826 1795.9 Z " id="Path" fill="rgb(219,202,252)"></path><path d=" M 1137.826 1756.1 L 18.331 1611.486 C 3.471 1609.581 -0.438 1589.869 12.571 1582.439 L 588.612 1253.442 C 618.377 1236.442 652.869 1229.603 686.872 1233.955 L 1806.369 1378.569 C 1821.228 1380.475 1825.132 1400.186 1812.127 1407.616 L 1236.087 1736.613 C 1206.326 1753.614 1171.826 1760.452 1137.826 1756.1 Z " id="Path" fill="rgb(254,254,254)"></path><path d=" M 1357.015 1573.481 L 386.266 1447.161 C 372.844 1445.439 369.312 1427.644 381.063 1420.927 L 609.315 1291.887 C 636.198 1276.527 667.352 1270.351 698.063 1274.285 L 1668.807 1400.604 C 1682.23 1402.317 1685.767 1420.122 1674.016 1426.828 L 1445.756 1555.879 C 1418.88 1571.228 1387.723 1577.415 1357.015 1573.481 Z " id="Path" fill="rgb(219,202,252)"></path><path d=" M 1448.651 1436.908 C 1448.498 1436.908 1448.345 1436.908 1448.192 1436.878 L 963.462 1371.537 C 961.617 1371.292 960.312 1369.59 960.567 1367.745 C 960.812 1365.89 962.524 1364.576 964.369 1364.841 L 1449.089 1430.181 C 1450.944 1430.436 1452.238 1432.138 1451.994 1433.983 C 1451.759 1435.685 1450.312 1436.908 1448.651 1436.908 Z " id="Path" fill="rgb(33,22,84)"></path><path d=" M 1134.463 1456.67 C 1134.31 1456.67 1134.157 1456.66 1134.004 1456.64 L 882.293 1422.385 C 880.448 1422.14 879.154 1420.428 879.408 1418.583 C 879.653 1416.738 881.375 1415.434 883.21 1415.688 L 1134.911 1449.944 C 1136.756 1450.188 1138.05 1451.901 1137.806 1453.745 C 1137.571 1455.437 1136.124 1456.67 1134.463 1456.67 Z " id="Path" fill="rgb(33,22,84)"></path><path d=" M 127.626 1628.456 C 127.486 1628.456 127.347 1628.446 127.205 1628.426 L 17.914 1614.84 C 9.666 1613.78 3.302 1607.838 1.686 1599.694 C 0.07 1591.551 3.685 1583.622 10.894 1579.504 L 133.195 1509.658 C 134.818 1508.731 136.882 1509.292 137.806 1510.912 C 138.731 1512.533 138.168 1514.602 136.548 1515.529 L 14.247 1585.375 C 8.61 1588.595 7.487 1594.201 8.315 1598.38 C 9.142 1602.548 12.321 1607.308 18.76 1608.133 L 128.039 1621.719 C 129.891 1621.954 131.205 1623.646 130.975 1625.49 C 130.762 1627.203 129.306 1628.456 127.626 1628.456 Z " id="Path" fill="rgb(33,22,84)"></path><path d=" M 1157.619 1760.738 C 1150.861 1760.738 1144.114 1760.31 1137.398 1759.454 L 450.753 1670.753 C 448.903 1670.518 447.597 1668.816 447.835 1666.972 C 448.074 1665.117 449.769 1663.812 451.621 1664.047 L 1138.264 1752.747 C 1171.317 1756.977 1205.47 1750.209 1234.405 1733.678 L 1429.398 1622.321 C 1431.018 1621.393 1433.087 1621.954 1434.005 1623.574 C 1434.932 1625.195 1434.372 1627.253 1432.751 1628.181 L 1237.758 1739.549 C 1213.43 1753.451 1185.565 1760.738 1157.619 1760.738 Z " id="Path" fill="rgb(33,22,84)"></path><path d=" M 1394.154 1328.7 C 1394.011 1328.7 1393.869 1328.69 1393.716 1328.669 L 686.434 1237.309 C 653.383 1233.069 619.233 1239.846 590.288 1256.378 L 470.931 1324.542 C 469.31 1325.469 467.247 1324.909 466.32 1323.288 C 465.395 1321.667 465.958 1319.599 467.578 1318.671 L 586.935 1250.507 C 617.146 1233.252 652.785 1226.189 687.3 1230.602 L 1394.582 1321.973 C 1396.437 1322.208 1397.742 1323.9 1397.497 1325.754 C 1397.283 1327.457 1395.826 1328.7 1394.154 1328.7 Z " id="Path" fill="rgb(33,22,84)"></path><path d=" M 101.347 693.597 L 101.369 693.597 L 101.347 693.597 Z M 107.542 695.646 C 105.906 695.646 104.273 695.982 102.732 696.675 C 96.642 699.417 93.876 706.714 96.568 712.942 C 97.878 715.979 100.266 718.303 103.293 719.485 C 106.245 720.637 109.465 720.545 112.357 719.25 C 118.448 716.509 121.213 709.211 118.522 702.984 C 117.213 699.937 114.824 697.623 111.797 696.441 C 110.416 695.911 108.979 695.646 107.542 695.646 Z M 107.55 727.047 C 105.287 727.047 103.019 726.629 100.844 725.784 C 96.116 723.939 92.394 720.331 90.362 715.622 C 86.216 706.011 90.523 694.749 99.963 690.519 C 104.52 688.471 109.591 688.328 114.244 690.142 C 118.973 691.987 122.696 695.585 124.728 700.304 C 128.873 709.904 124.566 721.177 115.127 725.406 C 112.7 726.497 110.128 727.047 107.55 727.047 Z " id="Compound Path" fill="rgb(33,22,84)"></path><path d=" M 144.333 641.638 C 143.837 641.638 143.335 641.53 142.858 641.299 C 141.179 640.482 140.48 638.461 141.294 636.782 C 229.048 456.016 338.088 357.883 414.106 307.391 C 496.661 252.558 559.45 240.405 560.073 240.289 C 561.916 239.939 563.67 241.16 564.014 242.991 C 564.357 244.825 563.146 246.589 561.314 246.933 C 560.699 247.047 498.98 259.052 417.501 313.249 C 342.286 363.28 234.365 460.539 147.375 639.735 C 146.789 640.937 145.585 641.638 144.333 641.638 Z " id="Path" fill="rgb(33,22,84)"></path><path d=" M 148.7 544.267 C 148.102 544.267 147.497 544.108 146.949 543.777 C 145.354 542.807 144.846 540.728 145.816 539.133 C 249.933 367.788 365.769 280.746 444.608 237.898 C 530.241 191.356 592.223 185.37 592.839 185.315 C 594.686 185.15 596.338 186.521 596.504 188.38 C 596.671 190.237 595.3 191.88 593.441 192.047 C 592.837 192.102 531.948 198.04 447.457 244.039 C 369.454 286.508 254.804 372.788 151.59 542.644 C 150.955 543.689 149.841 544.267 148.7 544.267 Z " id="Path" fill="rgb(33,22,84)"></path><path d=" M 509.614 176.388 C 509.183 176.388 508.746 176.307 508.323 176.13 C 506.598 175.418 505.78 173.441 506.493 171.715 C 509.994 163.262 514.737 158.226 520.587 156.749 C 524.901 155.65 528.117 156.981 530.702 158.041 C 532.663 158.848 534.358 159.539 536.559 159.33 C 540.551 158.946 542.687 156.014 545.842 151.269 C 548.79 146.837 552.131 141.812 558.451 140.097 C 566.17 138 572.017 142.51 577.18 146.489 C 581.61 149.901 585.792 153.124 590.834 152.364 C 596.596 151.49 599.986 145.88 603.574 139.941 C 607.631 133.226 612.228 125.615 621.192 124.364 C 628.711 123.32 634.286 127.347 639.211 130.903 C 643.246 133.815 646.737 136.333 650.358 135.437 C 654.111 134.514 659.385 129.774 663.201 112.421 C 663.602 110.6 665.402 109.436 667.227 109.848 C 669.049 110.248 670.202 112.049 669.8 113.874 C 666.087 130.764 660.255 139.964 651.971 142.001 C 645.315 143.627 639.968 139.784 635.257 136.383 C 630.982 133.299 626.939 130.393 622.125 131.056 C 616.349 131.865 613.109 137.226 609.359 143.433 C 605.32 150.119 600.743 157.698 591.847 159.047 C 583.963 160.241 578.165 155.777 573.056 151.842 C 567.874 147.851 564.481 145.465 560.222 146.616 C 556.352 147.668 554.09 151.071 551.47 155.012 C 548.252 159.854 544.602 165.342 537.209 166.058 C 533.334 166.427 530.455 165.245 528.135 164.293 C 525.677 163.285 524.3 162.788 522.242 163.301 C 518.574 164.227 515.377 167.928 512.737 174.303 C 512.199 175.602 510.94 176.388 509.614 176.388 Z " id="Path" fill="rgb(33,22,84)"></path><path d=" M 875.107 1799.753 C 873.242 1799.753 871.734 1798.234 871.734 1796.369 L 871.734 1778.92 C 871.734 1777.055 873.242 1775.547 875.107 1775.547 C 876.973 1775.547 878.491 1777.055 878.491 1778.92 L 878.491 1796.369 C 878.491 1798.234 876.973 1799.753 875.107 1799.753 Z " id="Path" fill="rgb(33,22,84)"></path><path d=" M 875.107 1840.388 C 873.242 1840.388 871.734 1838.869 871.734 1837.004 L 871.734 1819.566 C 871.734 1817.701 873.242 1816.182 875.107 1816.182 C 876.973 1816.182 878.491 1817.701 878.491 1819.566 L 878.491 1837.004 C 878.491 1838.869 876.973 1840.388 875.107 1840.388 Z " id="Path" fill="rgb(33,22,84)"></path><path d=" M 863.509 1811.341 L 846.07 1811.341 C 844.205 1811.341 842.687 1809.833 842.687 1807.967 C 842.687 1806.102 844.205 1804.584 846.07 1804.584 L 863.509 1804.584 C 865.384 1804.584 866.893 1806.102 866.893 1807.967 C 866.893 1809.833 865.384 1811.341 863.509 1811.341 Z " id="Path" fill="rgb(33,22,84)"></path><path d=" M 904.155 1811.341 L 886.706 1811.341 C 884.841 1811.341 883.322 1809.833 883.322 1807.967 C 883.322 1806.102 884.841 1804.584 886.706 1804.584 L 904.155 1804.584 C 906.02 1804.584 907.528 1806.102 907.528 1807.967 C 907.528 1809.833 906.02 1811.341 904.155 1811.341 Z " id="Path" fill="rgb(33,22,84)"></path><path d=" M 749.97 1780.398 L 749.991 1780.398 L 749.97 1780.398 Z M 759.571 1781.703 C 756.768 1781.703 753.986 1782.304 751.356 1783.476 C 740.991 1788.134 736.283 1800.527 740.859 1811.127 C 743.081 1816.294 747.147 1820.239 752.314 1822.246 C 757.349 1824.203 762.853 1824.061 767.796 1821.849 C 778.151 1817.191 782.86 1804.798 778.294 1794.198 C 776.062 1789.031 771.995 1785.086 766.838 1783.079 C 764.474 1782.161 762.017 1781.703 759.571 1781.703 Z M 759.581 1830.38 C 756.3 1830.38 753.018 1829.768 749.858 1828.545 C 742.999 1825.875 737.597 1820.646 734.652 1813.797 C 728.628 1799.844 734.876 1783.476 748.584 1777.32 C 755.189 1774.354 762.537 1774.161 769.284 1776.78 C 776.143 1779.45 781.545 1784.679 784.501 1791.528 C 790.524 1805.491 784.266 1821.849 770.558 1828.015 C 767.042 1829.595 763.322 1830.38 759.581 1830.38 Z " id="Compound Path" fill="rgb(33,22,84)"></path><path d=" M 877.054 1130.344 L 1617.175 1221.378 C 1637.528 1223.876 1653.856 1209.209 1653.632 1188.601 L 1642.308 144.679 C 1641.473 116.656 1627.999 98.986 1605.016 96.159 L 864.926 8.331 C 846.631 6.08 831.18 17.654 828.449 35.656 L 839.792 1088.496 C 840.016 1109.104 856.701 1127.837 877.054 1130.344 Z " id="Path" fill="rgb(219,202,252)"></path><path d=" M 847.243 1129.06 L 1587.465 1220.104 C 1607.829 1222.612 1624.146 1207.915 1623.922 1187.286 L 1612.374 141.998 C 1611.529 113.936 1598.045 96.381 1575.062 93.554 L 834.829 2.505 C 816.534 0.254 801.083 11.868 798.362 29.897 L 809.97 1087.171 C 810.195 1107.799 826.889 1126.552 847.243 1129.06 Z " id="Path" fill="rgb(254,254,254)"></path><path d=" M 1373.373 1193.707 C 1373.24 1193.707 1373.108 1193.707 1372.975 1193.687 L 847.793 1133.564 C 825.819 1130.864 807.769 1110.571 807.524 1088.353 L 805.659 958.048 C 805.639 956.183 807.127 954.654 808.992 954.624 C 810.837 954.522 812.396 956.092 812.417 957.957 L 814.282 1088.261 C 814.486 1107.239 829.886 1124.545 848.588 1126.848 L 1373.75 1186.97 C 1375.605 1187.184 1376.93 1188.866 1376.726 1190.721 C 1376.522 1192.443 1375.065 1193.707 1373.373 1193.707 Z " id="Path" fill="rgb(33,22,84)"></path><path d=" M 807.779 872.915 C 805.934 872.915 804.426 871.427 804.395 869.582 L 798.831 479.812 C 798.81 477.947 800.298 476.411 802.163 476.385 C 804.018 476.376 805.568 477.85 805.588 479.716 L 811.153 869.48 C 811.183 871.345 809.695 872.884 807.83 872.915 C 807.81 872.915 807.789 872.915 807.779 872.915 Z " id="Path" fill="rgb(33,22,84)"></path><path d=" M 1617.715 607.566 C 1615.86 607.566 1614.352 606.074 1614.342 604.219 L 1609.928 143.177 C 1609.133 116.729 1596.934 100.678 1575.581 98.055 L 835.349 7.003 C 818.96 4.996 805.241 15.188 802.673 31.287 L 805.588 350.811 C 805.608 352.676 804.11 354.202 802.245 354.22 C 800.349 354.209 798.851 352.739 798.831 350.872 L 795.916 31.073 C 795.916 30.894 795.926 30.715 795.946 30.537 C 798.922 10.843 816.228 -2.148 836.174 0.294 L 1576.407 91.344 C 1601.112 94.383 1615.789 113.226 1616.686 143.042 L 1621.099 604.152 C 1621.109 606.021 1619.611 607.547 1617.746 607.566 C 1617.735 607.566 1617.725 607.566 1617.715 607.566 Z " id="Path" fill="rgb(33,22,84)"></path><path d=" M 1142.993 537.256 L 878.654 504.546 C 872.468 503.781 867.239 494.679 866.974 484.218 C 866.709 473.757 871.51 465.896 877.696 466.662 L 1142.035 499.371 C 1148.222 500.136 1153.44 509.238 1153.705 519.7 C 1153.97 530.161 1149.17 538.021 1142.993 537.256 Z " id="Path" fill="rgb(219,202,252)"></path><path d=" M 1546.759 379.861 L 1179.898 334.503 C 1172.723 333.616 1166.7 324.415 1166.435 313.954 C 1166.17 303.492 1171.775 295.731 1178.951 296.618 L 1545.8 341.976 C 1552.976 342.863 1559.009 352.063 1559.274 362.524 C 1559.539 372.986 1553.934 380.747 1546.759 379.861 Z " id="Path" fill="rgb(219,202,252)"></path><path d=" M 1546.055 298.802 L 1179.195 253.444 C 1172.02 252.557 1165.986 243.357 1165.721 232.896 C 1165.456 222.434 1171.062 214.672 1178.237 215.56 L 1545.097 260.917 C 1552.272 261.805 1558.296 271.004 1558.561 281.466 C 1558.826 291.927 1553.23 299.689 1546.055 298.802 Z " id="Path" fill="rgb(219,202,252)"></path><path d=" M 1547.931 465.707 L 1181.07 420.348 C 1173.895 419.462 1167.872 410.261 1167.607 399.8 C 1167.342 389.338 1172.947 381.577 1180.123 382.464 L 1546.973 427.822 C 1554.148 428.709 1560.181 437.909 1560.446 448.37 C 1560.711 458.831 1555.106 466.593 1547.931 465.707 Z " id="Path" fill="rgb(219,202,252)"></path><path d=" M 1545.362 789.585 L 1016.755 724.336 C 1006.421 723.052 997.829 713.543 997.564 703.076 C 997.299 692.619 1005.463 685.168 1015.808 686.453 L 1544.404 751.702 C 1554.749 752.976 1563.341 762.495 1563.606 772.952 C 1563.871 783.419 1555.697 790.859 1545.362 789.585 Z " id="Path" fill="rgb(219,202,252)"></path><path d=" M 1545.25 708.6 L 1016.643 643.347 C 1006.309 642.071 997.707 632.555 997.452 622.093 C 997.187 611.631 1005.351 604.186 1015.685 605.462 L 1544.292 670.715 C 1554.627 671.991 1563.219 681.51 1563.484 691.967 C 1563.749 702.434 1555.585 709.874 1545.25 708.6 Z " id="Path" fill="rgb(219,202,252)"></path><path d=" M 1546.096 875.381 L 1017.489 810.122 C 1007.155 808.848 998.553 799.329 998.298 788.872 C 998.033 778.405 1006.197 770.965 1016.531 772.239 L 1545.138 837.488 C 1555.473 838.772 1564.075 848.281 1564.34 858.748 C 1564.605 869.205 1556.431 876.655 1546.096 875.381 Z " id="Path" fill="rgb(219,202,252)"></path><path d=" M 1546.789 959.71 L 1018.182 894.45 C 1007.848 893.176 999.256 883.657 998.991 873.2 C 998.726 862.733 1006.89 855.293 1017.224 856.567 L 1545.831 921.826 C 1556.176 923.1 1564.768 932.609 1565.033 943.076 C 1565.298 953.533 1557.124 960.984 1546.789 959.71 Z " id="Path" fill="rgb(219,202,252)"></path><path d=" M 1547.625 1049.868 L 1019.018 984.609 C 1008.683 983.335 1000.092 973.826 999.827 963.358 C 999.562 952.901 1007.725 945.451 1018.07 946.725 L 1546.667 1011.984 C 1557.012 1013.258 1565.604 1022.767 1565.868 1033.235 C 1566.133 1043.692 1557.96 1051.142 1547.625 1049.868 Z " id="Path" fill="rgb(219,202,252)"></path><path d=" M 1548.359 1135.654 L 1019.752 1070.405 C 1009.417 1069.131 1000.825 1059.611 1000.56 1049.154 C 1000.295 1038.687 1008.459 1031.247 1018.794 1032.521 L 1547.401 1097.77 C 1557.735 1099.044 1566.337 1108.564 1566.602 1119.02 C 1566.867 1129.488 1558.693 1136.938 1548.359 1135.654 Z " id="Path" fill="rgb(219,202,252)"></path><path d=" M 947.287 671.101 C 951.731 671.473 955.909 670.088 959.028 667.211 C 962.198 664.296 963.941 660.185 963.941 655.631 L 963.941 589.722 C 963.941 580.117 956.215 571.66 946.726 570.873 L 881.498 565.445 C 877.054 565.083 872.875 566.455 869.746 569.333 C 866.587 572.249 864.834 576.36 864.834 580.914 L 864.834 646.823 C 864.834 656.427 872.559 664.883 882.058 665.671 L 947.287 671.101 Z M 948.714 677.918 C 948.051 677.918 947.389 677.892 946.726 677.836 C 946.726 677.836 946.726 677.836 946.726 677.836 L 881.498 672.407 C 868.585 671.334 858.077 659.857 858.077 646.823 L 858.077 580.914 C 858.077 574.448 860.604 568.567 865.17 564.361 C 869.706 560.185 875.699 558.18 882.058 558.71 L 947.287 564.137 C 960.2 565.21 970.698 576.687 970.698 589.722 L 970.698 655.631 C 970.698 662.097 968.181 667.975 963.615 672.183 C 959.548 675.918 954.319 677.918 948.714 677.918 Z " id="Compound Path" fill="rgb(33,22,84)"></path><path d=" M 906.764 659.419 C 905.673 659.419 904.562 659.307 903.461 659.076 C 897.703 657.872 892.994 653.689 891.088 648.109 L 878.45 613.755 C 876.086 607.334 879.378 600.213 885.799 597.851 C 892.22 595.483 899.344 598.779 901.708 605.202 L 908.731 624.306 L 934.18 585.386 C 937.921 579.662 945.595 578.047 951.333 581.795 C 957.061 585.54 958.661 593.218 954.921 598.946 L 919.361 653.339 L 918.8 653.987 C 915.753 657.475 911.34 659.419 906.764 659.419 Z " id="Path" fill="rgb(133,104,204)"></path><path d=" M 947.287 809.653 C 951.731 810.02 955.909 808.634 959.038 805.76 C 962.198 802.845 963.941 798.738 963.941 794.182 L 963.941 728.27 C 963.941 718.67 956.215 710.21 946.726 709.425 L 881.498 703.993 C 877.054 703.616 872.875 705.002 869.746 707.886 C 866.587 710.791 864.834 714.909 864.834 719.464 L 864.834 785.366 C 864.834 794.977 872.559 803.436 882.058 804.221 L 947.287 809.653 Z M 948.714 816.462 C 948.051 816.462 947.389 816.441 946.726 816.38 C 946.726 816.38 946.726 816.38 946.726 816.38 L 881.498 810.958 C 868.585 809.877 858.077 798.401 858.077 785.366 L 858.077 719.464 C 858.077 712.993 860.594 707.122 865.17 702.913 C 869.706 698.734 875.699 696.736 882.058 697.256 L 947.287 702.688 C 960.2 703.759 970.698 715.235 970.698 728.27 L 970.698 794.182 C 970.698 800.644 968.181 806.524 963.615 810.734 C 959.548 814.464 954.319 816.462 948.714 816.462 Z " id="Compound Path" fill="rgb(33,22,84)"></path><path d=" M 906.764 797.963 C 905.673 797.963 904.562 797.851 903.472 797.627 C 897.703 796.424 892.994 792.235 891.088 786.65 L 878.45 752.303 C 876.086 745.882 879.378 738.758 885.799 736.393 C 892.22 734.029 899.344 737.331 901.708 743.752 L 908.731 762.852 L 934.18 723.939 C 937.921 718.211 945.595 716.59 951.333 720.341 C 957.061 724.092 958.661 731.766 954.921 737.494 L 919.361 791.889 L 918.8 792.531 C 915.753 796.027 911.34 797.963 906.764 797.963 Z " id="Path" fill="rgb(133,104,204)"></path><path d=" M 949.234 953.472 L 884.005 948.04 C 872.784 947.112 863.682 937.165 863.682 925.821 L 863.682 859.91 C 863.682 848.576 872.784 840.148 884.005 841.075 L 949.234 846.507 C 960.455 847.445 969.546 857.382 969.546 868.726 L 969.546 934.637 C 969.546 945.971 960.455 954.4 949.234 953.472 Z " id="Path" fill="rgb(219,202,252)"></path><path d=" M 949.234 1094.264 L 884.005 1088.842 C 872.784 1087.904 863.682 1077.957 863.682 1066.624 L 863.682 1000.712 C 863.682 989.379 872.784 980.94 884.005 981.877 L 949.234 987.31 C 960.455 988.237 969.546 998.184 969.546 1009.518 L 969.546 1075.429 C 969.546 1086.773 960.455 1095.202 949.234 1094.264 Z " id="Path" fill="rgb(219,202,252)"></path><path d=" M 866.995 268.108 C 865.272 200.207 918.24 151.87 985.283 160.147 C 1052.325 168.423 1108.065 230.177 1109.778 298.078 C 1111.5 365.981 1058.532 414.316 991.49 406.04 C 924.447 397.763 868.707 336.011 866.995 268.108 Z " id="Path" fill="rgb(254,254,254)"></path><path d=" M 1006.411 410.346 C 1001.366 410.346 996.249 410.031 991.082 409.391 C 922.541 400.933 865.364 337.591 863.611 268.192 C 863.234 253.282 865.405 238.988 870.073 225.71 C 870.684 223.95 872.621 223.024 874.384 223.642 C 876.137 224.261 877.064 226.187 876.443 227.949 C 872.06 240.452 870.011 253.935 870.368 268.021 C 872.04 334.21 926.556 394.619 991.907 402.686 C 1023.217 406.546 1052.346 397.902 1073.922 378.333 C 1095.672 358.606 1107.209 330.133 1106.404 298.164 C 1104.733 231.975 1050.216 171.565 984.875 163.498 C 949.56 159.157 916.874 170.871 895.165 195.68 C 893.932 197.085 891.802 197.228 890.395 195.999 C 888.989 194.768 888.846 192.634 890.079 191.231 C 913.287 164.707 948.133 152.154 985.701 156.793 C 1054.231 165.252 1111.408 228.595 1113.161 297.993 C 1114.017 331.959 1101.695 362.269 1078.458 383.34 C 1058.981 401.001 1033.817 410.346 1006.411 410.346 Z " id="Path" fill="rgb(33,22,84)"></path><path d=" M 907.365 362.225 C 929.634 385.684 959.242 402.059 991.49 406.04 C 1023.737 410.021 1052.703 400.878 1073.922 382.785 C 1048.575 371.792 1020.211 363.868 990.338 360.18 C 960.455 356.492 932.315 357.44 907.365 362.225 Z " id="Path" fill="rgb(219,202,252)"></path><path d=" M 991.581 381.048 C 981.002 379.742 972.196 369.994 971.931 359.277 L 969.434 260.326 L 1007.756 265.056 L 1010.253 364.007 C 1010.518 374.725 1002.161 382.355 991.581 381.048 Z " id="Path" fill="rgb(254,254,254)"></path><path d=" M 1063.69 307.953 C 1060.51 276.92 1073.413 259.389 1042.531 220.957 C 1010.549 181.163 984.498 201.984 984.498 201.984 C 984.498 201.984 961.8 180.557 933.63 216.024 C 908.761 247.327 942.507 282.294 931.968 302.392 C 921.43 322.491 884.148 329.561 884.148 329.561 C 884.148 329.561 896.806 355.443 912.013 368.019 L 1070.508 387.583 C 1070.508 387.583 1102.348 355.525 1102.093 345.279 C 1102.093 345.279 1066.88 338.987 1063.69 307.953 Z " id="Path" fill="rgb(33,22,84)"></path><path d=" M 907.365 362.225 C 929.634 385.684 959.242 402.059 991.49 406.04 C 1023.737 410.021 1052.703 400.878 1073.922 382.785 C 1048.575 371.792 1020.211 363.868 990.338 360.18 C 960.455 356.492 932.315 357.44 907.365 362.225 Z " id="Path" fill="rgb(219,202,252)"></path><path d=" M 914.306 364.427 C 936.239 385.674 963.574 399.188 991.907 402.688 C 1020.037 406.153 1046.608 399.43 1067.399 383.699 C 1042.908 373.639 1016.868 366.858 989.92 363.532 C 963.431 360.266 938.033 360.566 914.306 364.427 Z M 1006.268 410.339 C 1001.264 410.339 996.198 410.027 991.082 409.393 C 959.222 405.462 928.625 389.537 904.919 364.55 L 900.669 360.069 L 906.733 358.906 C 932.937 353.88 961.209 353.179 990.746 356.827 C 1020.251 360.467 1048.687 368.158 1075.268 379.685 L 1080.231 381.841 L 1076.114 385.357 C 1056.953 401.7 1032.563 410.339 1006.268 410.339 Z " id="Compound Path" fill="rgb(33,22,84)"></path><path d=" M 989.645 230.723 L 988.31 230.559 L 950.314 265.444 L 950.864 287.217 C 951.231 301.75 959.314 315.389 971.034 323.68 L 971.931 359.277 C 972.196 369.994 981.002 379.742 991.581 381.048 C 1002.161 382.355 1010.518 374.725 1010.253 364.007 L 1009.366 329.078 C 1021.362 323.887 1029.292 311.855 1028.914 296.85 L 1028.323 273.575 C 1027.793 252.479 1010.467 233.294 989.645 230.723 Z " id="Path" fill="rgb(254,254,254)"></path><path d=" M 993.946 384.575 C 993.029 384.575 992.101 384.516 991.163 384.4 C 979.004 382.9 968.863 371.667 968.547 359.364 L 967.681 324.851 C 967.63 322.985 969.108 321.434 970.973 321.386 C 972.91 321.364 974.387 322.813 974.438 324.679 L 975.305 359.191 C 975.539 368.286 983.02 376.586 991.999 377.695 C 996.096 378.189 999.898 377.09 1002.68 374.567 C 1005.483 372.019 1006.981 368.299 1006.869 364.093 L 1006.013 330.175 C 1005.972 328.31 1007.44 326.759 1009.305 326.71 C 1011.16 326.644 1012.719 328.135 1012.77 330.004 L 1013.627 363.922 C 1013.779 370.125 1011.507 375.682 1007.216 379.573 C 1003.608 382.843 998.97 384.575 993.946 384.575 Z " id="Path" fill="rgb(33,22,84)"></path><path d=" M 995.689 335.23 C 993.976 335.23 992.234 335.122 990.47 334.905 C 988.615 334.676 987.301 332.991 987.535 331.138 C 987.759 329.286 989.451 327.97 991.306 328.2 C 1000.683 329.351 1009.407 326.785 1015.838 320.948 C 1022.33 315.061 1025.775 306.535 1025.531 296.937 L 1024.95 273.661 C 1024.471 254.718 1009.448 237.429 990.756 234.299 C 990.746 234.296 990.735 234.294 990.735 234.294 L 953.749 267.585 L 954.248 287.131 C 954.605 301.432 963.278 315.551 976.334 323.1 C 977.955 324.035 978.505 326.101 977.578 327.718 C 976.64 329.332 974.571 329.886 972.961 328.952 C 957.907 320.253 947.909 303.904 947.491 287.303 L 946.961 266.202 C 946.93 265.214 947.338 264.265 948.072 263.606 L 987.382 228.211 C 988.106 227.558 989.084 227.263 990.052 227.368 C 990.664 227.444 991.265 227.531 991.877 227.632 C 1013.647 231.28 1031.147 251.423 1031.697 273.49 L 1032.288 296.765 C 1032.584 308.361 1028.354 318.726 1020.384 325.955 C 1013.698 332.021 1005.065 335.23 995.689 335.23 Z " id="Path" fill="rgb(33,22,84)"></path><path d=" M 332.995 732.48 L 333.849 784 C 334.629 790.411 339.244 795.69 345.488 797.321 L 348.106 798.819 C 352.365 799.9 354.586 800.807 357.231 810.54 C 324.498 820.813 293.035 818.612 263.279 799.624 C 262.006 796.842 262.42 793.591 266.565 793.244 L 271.036 792.174 C 277.21 790.788 281.956 785.845 283.078 779.607 L 288.766 713.777 L 332.995 732.48 Z " id="Path" fill="rgb(254,254,254)"></path><path d=" M 266.067 797.392 C 292.585 813.964 321.08 817.532 353.037 808.277 C 351.337 803.13 350.043 802.794 347.27 802.091 C 346.977 802.019 346.694 801.897 346.432 801.754 L 344.184 800.47 C 336.782 798.35 331.43 792.092 330.495 784.408 C 330.481 784.285 330.472 784.173 330.47 784.051 L 329.654 734.732 L 291.733 718.7 L 286.446 779.893 C 286.436 780.005 286.423 780.107 286.405 780.209 C 285.037 787.802 279.295 793.784 271.775 795.476 L 267.354 796.536 C 267.187 796.577 267.018 796.597 266.846 796.618 C 266.297 796.658 266.033 796.781 265.978 796.822 C 265.986 796.852 265.991 797.066 266.067 797.392 Z M 320.066 819.927 C 299.294 819.927 279.687 814.107 261.462 802.478 C 260.911 802.121 260.476 801.622 260.206 801.031 C 258.951 798.279 258.949 795.486 260.2 793.346 C 260.863 792.215 262.488 790.289 266.004 789.911 L 270.248 788.892 C 275.11 787.802 278.797 783.99 279.727 779.149 L 285.399 713.482 C 285.492 712.401 286.095 711.443 287.022 710.883 C 287.949 710.322 289.089 710.241 290.081 710.659 L 334.311 729.361 C 335.543 729.881 336.351 731.083 336.375 732.418 L 337.224 783.755 C 337.899 788.75 341.462 792.775 346.342 794.049 C 346.629 794.131 346.904 794.243 347.162 794.386 L 349.394 795.66 C 355.192 797.229 357.792 799.726 360.49 809.653 C 360.967 811.406 359.974 813.22 358.242 813.761 C 345.139 817.878 332.397 819.927 320.066 819.927 Z " id="Compound Path" fill="rgb(33,22,84)"></path><path d=" M 358.686 632.899 C 345.884 631.501 355.953 646.782 310.799 630.226 C 292.289 623.439 300.609 646.21 295.773 644.545 C 277.912 638.401 270.972 644.091 266.61 647.008 C 261.567 650.378 256.304 658.787 256.994 666.872 C 257.904 677.544 271.814 681.479 278.447 704.278 C 283.107 720.28 281.273 729.769 287.491 732.388 C 293.779 735.038 298.949 726.731 306.035 729.106 C 315.205 732.184 312.543 748.114 321.259 755.228 C 326.753 759.713 339.94 762.342 361.766 753.129 C 365.304 751.63 367.278 747.829 366.447 744.078 C 365.383 739.278 364.006 733.213 362.204 727.526 C 353.618 700.456 344.42 693.954 348.219 687.258 C 354.039 676.981 373.779 684.058 377.544 675.57 C 381.455 666.752 376.213 634.813 358.686 632.899 Z " id="Path" fill="rgb(33,22,84)"></path><path d=" M 313.502 692.66 C 315.07 695.972 316.406 699.386 317.502 702.872 C 319.557 709.415 323.166 720.616 325.668 726.742 C 328.769 734.324 350.872 728.474 357.745 726.446 C 358.852 726.12 359.449 724.917 359.049 723.837 L 357.03 717.314 L 362.424 716.234 C 363.07 716.009 363.676 715.653 364.125 715.133 C 365.246 713.839 365.343 712.055 364.515 710.689 C 360.218 703.626 352.528 691.946 349.157 677.836 C 348.813 676.396 347.664 675.285 346.207 675.014 C 341.207 674.081 329.291 672.994 317.263 680.287 C 313.027 682.855 311.38 688.185 313.502 692.66 Z " id="Path" fill="rgb(254,254,254)"></path><path d=" M 355.836 724.866 C 355.849 724.917 355.863 724.958 355.879 725.009 L 355.836 724.866 Z M 316.556 691.212 C 318.183 694.647 319.587 698.235 320.726 701.863 C 322.676 708.07 326.317 719.393 328.796 725.468 C 329.657 727.567 338.703 728.362 355.44 723.592 L 352.694 714.725 L 361.468 712.982 C 361.532 712.952 361.569 712.921 361.582 712.911 C 361.759 712.707 361.661 712.503 361.627 712.452 L 360.424 710.485 C 355.903 703.127 349.069 692.017 345.871 678.622 C 345.836 678.474 345.726 678.362 345.589 678.337 C 341.315 677.533 330.175 676.408 319.015 683.181 C 316.24 684.863 315.181 688.318 316.556 691.212 Z M 335.491 733.886 C 329.242 733.886 324.298 732.317 322.54 728.016 C 319.968 721.727 316.26 710.2 314.278 703.891 C 313.232 700.548 311.943 697.266 310.448 694.107 C 307.585 688.073 309.762 680.884 315.511 677.397 C 328.666 669.424 341.793 670.755 346.828 671.693 C 349.584 672.204 351.788 674.308 352.444 677.052 C 355.392 689.398 361.885 699.957 366.18 706.939 L 367.401 708.936 C 369.021 711.596 368.73 714.98 366.679 717.345 C 365.88 718.272 364.79 718.985 363.53 719.424 L 363.084 719.546 L 361.366 719.893 L 362.278 722.838 C 362.733 724.061 362.647 725.62 361.979 726.945 C 361.315 728.27 360.119 729.269 358.697 729.687 C 351.081 731.939 342.471 733.886 335.491 733.886 Z " id="Compound Path" fill="rgb(33,22,84)"></path><path d=" M 309.427 716.896 C 296.005 721.574 291.452 709.058 294.421 701.608 C 295.669 698.479 299.999 698.163 301.789 701.017 L 310.27 714.562 C 310.814 715.428 310.395 716.56 309.427 716.896 Z " id="Path" fill="rgb(254,254,254)"></path><path d=" M 173.638 1717.87 L 176.547 1771.49 L 212.399 1777.544 L 215.589 1714.293 L 173.638 1717.87 Z " id="Path" fill="rgb(254,254,254)"></path><path d=" M 179.774 1768.616 L 209.216 1773.58 L 212.019 1717.993 L 177.19 1720.958 L 179.774 1768.616 Z M 212.4 1780.918 C 212.212 1780.918 212.025 1780.908 211.837 1780.877 L 175.985 1774.823 C 174.425 1774.558 173.257 1773.254 173.173 1771.674 L 170.264 1718.054 C 170.165 1716.229 171.532 1714.66 173.351 1714.507 L 215.301 1710.93 C 216.27 1710.848 217.234 1711.184 217.935 1711.867 C 218.637 1712.54 219.012 1713.488 218.963 1714.466 L 215.774 1777.707 C 215.725 1778.676 215.267 1779.573 214.516 1780.174 C 213.911 1780.663 213.163 1780.918 212.4 1780.918 Z " id="Compound Path" fill="rgb(33,22,84)"></path><path d=" M 213.398 1870.679 C 198.26 1872.034 173.519 1872.656 144.788 1867.193 C 135.372 1865.399 129.55 1855.89 132.306 1846.707 C 139.983 1821.135 153.436 1772.571 173.425 1750.75 L 177.482 1763.337 L 184.532 1752.034 C 185.498 1750.495 187.142 1749.496 188.961 1749.353 L 203.21 1748.273 C 206.187 1748.049 208.838 1750.148 209.304 1753.094 L 211.018 1763.918 L 216.663 1750.108 L 227.97 1853.322 C 228.682 1862.128 222.195 1869.894 213.398 1870.679 Z " id="Path" fill="rgb(133,104,204)"></path><path d=" M 172.096 1757.65 C 155.987 1778.941 144.351 1818.068 137.192 1842.151 L 135.543 1847.686 C 134.493 1851.171 134.958 1854.82 136.853 1857.939 C 138.73 1861.037 141.853 1863.198 145.419 1863.87 C 173.502 1869.211 197.721 1868.691 213.096 1867.315 C 220.002 1866.694 225.164 1860.538 224.603 1853.597 L 214.754 1763.714 L 214.147 1765.202 C 213.573 1766.598 212.143 1767.454 210.628 1767.281 C 209.123 1767.098 207.917 1765.946 207.681 1764.448 L 205.968 1753.624 C 205.778 1752.421 204.671 1751.565 203.464 1751.647 L 189.217 1752.727 C 188.474 1752.778 187.793 1753.196 187.399 1753.828 L 180.349 1765.12 C 179.654 1766.241 178.384 1766.853 177.068 1766.69 C 175.763 1766.527 174.67 1765.62 174.266 1764.376 L 172.096 1757.65 Z M 213.398 1870.679 L 213.419 1870.679 L 213.398 1870.679 Z M 191.983 1875 C 178.373 1875 162.024 1873.909 144.156 1870.516 C 138.714 1869.476 133.945 1866.174 131.076 1861.445 C 128.217 1856.736 127.486 1851.008 129.07 1845.739 L 130.715 1840.225 C 138.594 1813.726 151.78 1769.37 170.934 1748.467 C 171.748 1747.58 172.97 1747.213 174.145 1747.458 C 175.321 1747.712 176.271 1748.569 176.641 1749.72 L 178.466 1755.377 L 181.666 1750.25 C 183.196 1747.794 185.826 1746.204 188.705 1745.99 L 202.955 1744.91 C 207.295 1744.624 211.271 1747.437 212.421 1751.555 L 213.535 1748.834 C 214.12 1747.396 215.598 1746.551 217.133 1746.765 C 218.664 1746.979 219.854 1748.202 220.022 1749.741 L 231.329 1852.955 C 232.198 1863.677 224.285 1873.094 213.699 1874.052 C 213.698 1874.052 213.698 1874.052 213.698 1874.052 C 207.683 1874.592 200.351 1875 191.983 1875 Z " id="Compound Path" fill="rgb(33,22,84)"></path><path d=" M 180.79 1857.337 C 168.844 1857.337 155.168 1856.124 141.677 1852.333 C 139.881 1851.823 138.835 1849.958 139.341 1848.165 C 139.845 1846.361 141.715 1845.321 143.509 1845.82 C 178.084 1855.564 215.311 1847.145 215.684 1847.064 C 217.488 1846.646 219.316 1847.777 219.737 1849.602 C 220.159 1851.416 219.028 1853.23 217.209 1853.648 C 216.214 1853.882 200.977 1857.337 180.79 1857.337 Z " id="Path" fill="rgb(33,22,84)"></path><path d=" M 199.619 1817.619 C 199.6 1817.619 199.579 1817.619 199.56 1817.619 L 165.698 1817.028 C 163.832 1816.997 162.346 1815.458 162.378 1813.593 C 162.412 1811.728 163.981 1810.291 165.815 1810.271 L 199.676 1810.862 C 201.542 1810.892 203.028 1812.431 202.997 1814.297 C 202.964 1816.141 201.458 1817.619 199.619 1817.619 Z " id="Path" fill="rgb(33,22,84)"></path><path d=" M 343.995 1697.986 L 345.475 1776.097 L 388.873 1778.288 L 394.816 1700.554 L 343.995 1697.986 Z " id="Path" fill="rgb(254,254,254)"></path><path d=" M 348.795 1772.887 L 385.754 1774.752 L 391.182 1703.754 L 347.442 1701.543 L 348.795 1772.887 Z M 388.875 1781.672 C 388.818 1781.672 388.761 1781.662 388.703 1781.662 L 345.306 1779.471 C 343.533 1779.389 342.131 1777.942 342.099 1776.168 L 340.618 1698.057 C 340.598 1697.119 340.971 1696.212 341.644 1695.56 C 342.317 1694.908 343.216 1694.582 344.166 1694.612 L 394.986 1697.181 C 395.896 1697.221 396.749 1697.639 397.351 1698.322 C 397.954 1699.005 398.254 1699.902 398.184 1700.809 L 392.241 1778.543 C 392.107 1780.317 390.63 1781.672 388.875 1781.672 Z " id="Compound Path" fill="rgb(33,22,84)"></path><path d=" M 331.922 1819.474 C 331.441 1826.833 336.147 1833.549 343.235 1835.577 C 367.892 1842.64 423.441 1858.407 439.352 1861.598 C 460.003 1865.746 485.896 1860.66 497.503 1849.051 C 509.109 1837.432 474.963 1806.581 458.596 1795.156 C 434.28 1778.186 411.727 1745.919 401.683 1744.013 C 391.639 1742.107 371.279 1770.502 371.279 1770.502 L 341.071 1755.978 C 341.071 1755.978 334.359 1782.151 331.922 1819.474 Z " id="Path" fill="rgb(133,104,204)"></path><path d=" M 331.922 1819.474 L 331.944 1819.474 L 331.922 1819.474 Z M 343.406 1760.85 C 341.486 1769.533 337.135 1791.497 335.294 1819.688 C 334.918 1825.436 338.65 1830.746 344.166 1832.326 C 367.685 1839.073 424.102 1855.095 440.017 1858.285 C 459.981 1862.311 484.7 1857.083 495.113 1846.656 C 495.789 1845.983 496.662 1844.801 496.449 1842.396 C 495.422 1830.777 472.681 1809.109 456.662 1797.928 C 444.257 1789.265 432.656 1777.086 422.42 1766.343 C 413.866 1757.374 405.021 1748.09 401.053 1747.335 C 396.339 1746.489 383.256 1759.606 374.025 1772.469 C 373.068 1773.804 371.298 1774.252 369.816 1773.549 L 343.406 1760.85 Z M 454.27 1866.408 C 448.989 1866.408 443.722 1865.929 438.686 1864.91 C 422.529 1861.669 365.901 1845.586 342.305 1838.829 C 333.753 1836.372 327.969 1828.147 328.552 1819.25 C 330.979 1782.049 337.731 1755.407 337.799 1755.142 C 338.05 1754.164 338.727 1753.349 339.646 1752.921 C 340.562 1752.492 341.622 1752.492 342.536 1752.931 L 370.212 1766.231 C 376.726 1757.497 392.075 1738.754 402.313 1740.7 C 408.132 1741.801 415.242 1749.017 427.312 1761.686 C 437.328 1772.194 448.682 1784.108 460.528 1792.384 C 471.114 1799.773 501.668 1824.703 503.181 1841.805 C 503.518 1845.617 502.381 1848.949 499.893 1851.436 C 490.583 1860.752 472.366 1866.408 454.27 1866.408 Z " id="Compound Path" fill="rgb(33,22,84)"></path><path d=" M 456.18 1852.109 C 410.077 1852.109 345.466 1822.144 341.957 1820.493 C 340.268 1819.709 339.54 1817.691 340.331 1815.999 C 341.126 1814.317 343.136 1813.583 344.826 1814.378 C 345.902 1814.878 452.803 1864.472 485.982 1837.432 C 487.428 1836.25 489.557 1836.464 490.735 1837.911 C 491.915 1839.359 491.699 1841.489 490.251 1842.671 C 481.913 1849.469 469.859 1852.109 456.18 1852.109 Z " id="Path" fill="rgb(33,22,84)"></path><path d=" M 404.762 1802.433 C 403.782 1802.433 402.808 1802.005 402.14 1801.19 C 400.961 1799.742 401.179 1797.612 402.627 1796.43 L 425.703 1777.636 C 427.149 1776.454 429.278 1776.668 430.457 1778.115 C 431.635 1779.562 431.419 1781.692 429.971 1782.875 L 406.894 1801.669 C 406.267 1802.178 405.512 1802.433 404.762 1802.433 Z " id="Path" fill="rgb(33,22,84)"></path><path d=" M 202.591 1178.114 C 202.591 1178.114 162.635 1424.066 151.362 1507.712 C 140.089 1591.357 156.773 1727.563 156.773 1727.563 L 223.937 1727.43 C 223.937 1727.43 236.807 1563.482 244.083 1518.148 C 244.083 1518.148 275.494 1457.771 286.659 1403.071 C 297.826 1348.37 330.783 1262.738 330.783 1262.738 C 330.783 1262.738 332.068 1698.475 332.581 1732.73 C 332.581 1732.73 384.993 1737.724 404.423 1726.819 C 404.423 1726.819 445.783 1570.046 445.338 1483.598 C 444.894 1397.139 443.949 1180.784 443.949 1180.784 L 202.591 1178.114 Z " id="Path" fill="rgb(133,104,204)"></path><path d=" M 335.923 1729.611 C 346.93 1730.437 385.069 1732.567 401.529 1724.526 C 405.66 1708.555 442.373 1564.247 441.96 1483.608 C 441.548 1403.478 440.706 1211.716 440.585 1184.127 L 205.461 1181.528 C 200.952 1209.342 165.193 1430.385 154.71 1508.16 C 144.539 1583.632 157.449 1703.795 159.779 1724.179 L 220.814 1724.057 C 222.637 1701.176 234.086 1559.11 240.747 1517.608 C 240.804 1517.251 240.918 1516.905 241.085 1516.589 C 241.396 1515.988 272.41 1455.977 283.349 1402.388 C 294.444 1348.044 327.299 1262.391 327.629 1261.525 C 328.213 1260.006 329.798 1259.13 331.396 1259.415 C 332.994 1259.71 334.158 1261.107 334.162 1262.727 C 334.174 1266.988 335.393 1678.58 335.923 1729.611 Z M 359.029 1737.266 C 344.87 1737.266 333.271 1736.195 332.261 1736.094 C 330.546 1735.931 329.228 1734.504 329.203 1732.781 C 328.755 1702.97 327.712 1365.014 327.46 1281.368 C 317.293 1309.243 297.934 1364.739 289.971 1403.743 C 279.372 1455.661 250.367 1513.277 247.335 1519.208 C 240.148 1564.634 227.434 1726.054 227.305 1727.685 C 227.167 1729.448 225.704 1730.804 223.944 1730.804 L 156.78 1730.947 C 156.777 1730.947 156.775 1730.947 156.773 1730.947 C 155.066 1730.947 153.627 1729.673 153.419 1727.981 C 153.252 1726.615 136.812 1590.379 148.014 1507.263 C 159.164 1424.525 198.856 1180.03 199.256 1177.573 C 199.522 1175.932 200.936 1174.74 202.591 1174.74 C 202.603 1174.74 202.615 1174.74 202.629 1174.74 L 443.987 1177.4 C 445.833 1177.42 447.321 1178.919 447.329 1180.763 C 447.329 1180.763 448.273 1397.119 448.718 1483.577 C 449.158 1569.485 408.104 1726.116 407.689 1727.685 C 407.457 1728.572 406.875 1729.326 406.076 1729.775 C 395.275 1735.829 375.433 1737.266 359.029 1737.266 Z " id="Compound Path" fill="rgb(33,22,84)"></path><path d=" M 231.752 1520.89 C 231.693 1520.89 231.636 1520.88 231.578 1520.88 L 211.101 1519.85 C 209.238 1519.759 207.803 1518.169 207.897 1516.304 C 207.991 1514.439 209.607 1513.032 211.443 1513.103 L 231.919 1514.133 C 233.782 1514.224 235.217 1515.814 235.124 1517.68 C 235.032 1519.484 233.539 1520.89 231.752 1520.89 Z " id="Path" fill="rgb(254,254,254)"></path><path d=" M 371.235 1654.629 C 371.157 1654.629 371.079 1654.629 371 1654.619 C 369.137 1654.486 367.733 1652.876 367.86 1651.021 C 370.647 1610.528 418.567 1540.448 420.605 1537.483 C 421.664 1535.944 423.766 1535.556 425.304 1536.616 C 426.842 1537.666 427.23 1539.776 426.173 1541.315 C 425.685 1542.028 377.263 1612.832 374.603 1651.48 C 374.48 1653.263 372.996 1654.629 371.235 1654.629 Z " id="Path" fill="rgb(254,254,254)"></path><path d=" M 399.521 820.671 C 474.569 961.228 454.118 1031.064 553.982 895.908 C 556.935 891.913 563.21 893.115 564.473 897.916 L 574.39 935.636 C 574.39 935.636 367.926 1251.068 404.513 944.952 L 399.521 820.671 Z " id="Path" fill="rgb(33,22,84)"></path><path d=" M 203.718 1188.53 C 232.491 1198.345 261.047 1214.356 307.647 1206.05 L 330.819 1181.66 L 351.552 1203.614 C 382.563 1215.681 417.653 1215.437 455.215 1206.05 L 424.026 940.08 L 413.343 858.881 C 405.213 812.538 385.053 798.187 342.784 794.467 C 332.578 793.57 326.252 835.194 314.151 834.491 C 301.316 833.747 282.592 790.696 267.815 790.35 C 248.142 789.891 226.835 789.86 204.127 790.482 C 173.739 791.298 146.622 800.501 125.322 822.189 C 95.727 852.327 187.975 970.585 187.975 970.585 C 187.975 970.585 209.259 1086.1 203.718 1188.53 Z " id="Path" fill="rgb(33,22,84)"></path><path d=" M 262.136 804.588 C 272.175 855.823 288.385 907.119 310.086 958.476 C 330.489 911.074 345.368 863.701 352.605 816.36 C 354.25 805.597 346.374 795.711 335.506 795.018 C 316.638 814.759 295.89 810.438 273.975 791.104 C 266.562 790.625 260.707 797.301 262.136 804.588 Z " id="Path" fill="rgb(254,254,254)"></path><path d=" M 265.451 803.946 C 274.741 851.349 289.756 900.372 310.112 949.773 C 329.911 902.451 342.734 858.575 349.265 815.85 C 349.91 811.631 348.749 807.299 346.08 803.987 C 343.708 801.041 340.443 799.145 336.768 798.554 C 318.441 816.737 296.898 815.361 272.702 794.477 C 270.618 794.61 268.685 795.558 267.28 797.158 C 265.641 799.033 264.973 801.5 265.451 803.946 Z M 310.086 961.86 C 310.083 961.86 310.079 961.86 310.076 961.86 C 308.721 961.85 307.5 961.045 306.973 959.791 C 284.863 907.466 268.661 855.466 258.818 805.24 C 257.935 800.725 259.168 796.159 262.202 792.704 C 265.236 789.249 269.61 787.455 274.191 787.73 C 274.938 787.781 275.648 788.077 276.21 788.566 C 298.709 808.41 316.773 809.725 333.063 792.684 C 333.751 791.96 334.73 791.593 335.72 791.644 C 341.817 792.031 347.512 794.987 351.344 799.747 C 355.199 804.537 356.876 810.774 355.946 816.869 C 348.99 862.376 335.003 909.137 313.19 959.812 C 312.655 961.055 311.436 961.86 310.086 961.86 Z " id="Compound Path" fill="rgb(33,22,84)"></path><path d=" M 320.539 852.786 L 330.21 897.498 L 313.127 958.905 L 295.452 910.309 L 305.831 853.081 L 292.464 826.949 L 307.748 809.256 L 318.925 808.96 L 332.399 827.713 L 320.539 852.786 Z " id="Path" fill="rgb(133,104,204)"></path><path d=" M 273.161 851.603 C 262.547 832.82 253.862 808.563 265.611 793.265 L 281.691 775.908 C 281.691 775.908 290.423 802.244 311.667 809.083 L 273.161 851.603 Z " id="Path" fill="rgb(254,254,254)"></path><path d=" M 268.201 795.446 C 257.854 809.113 266.326 831.403 273.854 845.804 L 305.902 810.407 C 291.994 803.752 284.022 789.718 280.557 782.104 L 268.201 795.446 Z M 273.16 854.987 C 273.037 854.987 272.913 854.977 272.787 854.967 C 271.708 854.844 270.753 854.213 270.219 853.265 C 259.595 834.461 249.707 808.43 262.933 791.216 C 262.995 791.134 263.062 791.053 263.132 790.971 L 279.211 773.604 C 280.021 772.728 281.236 772.351 282.403 772.605 C 283.57 772.86 284.519 773.706 284.897 774.837 C 284.98 775.082 293.381 799.645 312.701 805.862 C 313.794 806.219 314.632 807.095 314.929 808.206 C 315.227 809.317 314.94 810.499 314.171 811.345 L 275.665 853.876 C 275.021 854.579 274.109 854.987 273.16 854.987 Z " id="Compound Path" fill="rgb(33,22,84)"></path><path d=" M 315.514 808.705 C 330.046 801.174 332.585 777.803 332.585 777.803 C 332.585 777.803 349.363 790.289 353.031 808.716 C 358.421 835.785 347.467 854.009 347.467 854.009 L 315.514 808.705 Z " id="Path" fill="rgb(254,254,254)"></path><path d=" M 320.332 809.674 L 346.853 847.272 C 349.526 840.362 353.173 826.735 349.716 809.368 C 347.465 798.065 339.764 789.055 334.841 784.275 C 333.17 791.44 329.2 803.151 320.332 809.674 Z M 347.467 857.382 C 346.371 857.382 345.34 856.852 344.706 855.955 L 312.753 810.652 C 312.189 809.857 311.999 808.848 312.231 807.9 C 312.461 806.952 313.092 806.157 313.96 805.709 C 326.686 799.115 329.203 777.65 329.225 777.436 C 329.359 776.234 330.126 775.194 331.236 774.705 C 332.345 774.236 333.631 774.369 334.6 775.092 C 335.329 775.643 352.467 788.576 356.345 808.053 C 361.926 836.091 350.837 854.957 350.362 855.752 C 349.774 856.72 348.731 857.342 347.59 857.382 C 347.549 857.382 347.508 857.382 347.467 857.382 Z " id="Compound Path" fill="rgb(33,22,84)"></path><path d=" M 100.527 1251.455 L 111.514 1265.316 C 122.778 1279.034 146.067 1264.582 177.927 1237.747 L 631.992 855.242 L 602.163 798.116 L 137.139 1188.081 C 105.28 1214.917 89.263 1237.747 100.527 1251.455 Z " id="Path" fill="rgb(133,104,204)"></path><path d=" M 601.113 803.406 L 139.311 1190.67 C 116.574 1209.831 91.836 1235.556 103.138 1249.315 C 103.15 1249.335 103.162 1249.345 103.174 1249.366 L 114.162 1263.227 C 116.094 1265.571 118.514 1266.875 121.527 1267.151 C 134.492 1268.272 157.326 1250.68 175.75 1235.158 L 627.742 854.406 L 601.113 803.406 Z M 122.88 1273.969 C 122.209 1273.969 121.552 1273.938 120.908 1273.877 C 116.071 1273.429 112.032 1271.278 108.903 1267.467 L 97.897 1253.585 C 86.042 1239.113 98.513 1216.201 134.963 1185.503 L 599.992 795.527 C 600.776 794.875 601.814 794.61 602.821 794.804 C 603.826 795.007 604.685 795.649 605.159 796.557 L 634.987 853.672 C 635.719 855.079 635.38 856.801 634.168 857.821 L 180.103 1240.325 C 152.003 1264.001 135.127 1273.969 122.88 1273.969 Z " id="Compound Path" fill="rgb(33,22,84)"></path><path d=" M 596.651 625.208 C 625.93 505.725 745.618 432.375 863.978 461.378 C 982.337 490.383 1054.558 610.755 1025.276 730.237 C 995.994 849.718 876.31 923.07 757.951 894.063 C 639.589 865.067 567.374 744.69 596.651 625.208 Z M 564.118 617.235 C 530.394 754.861 613.573 893.503 749.899 926.912 C 886.227 960.321 1024.084 875.83 1057.809 738.208 C 1091.534 600.588 1008.357 461.943 872.029 428.537 C 735.691 395.13 597.841 479.614 564.118 617.235 Z " id="Compound Path" fill="rgb(133,104,204)"></path><path d=" M 596.652 625.209 L 596.675 625.209 L 596.652 625.209 Z M 811.53 458.39 C 772.118 458.39 733.286 469.281 698.674 490.493 C 648.947 520.969 613.881 569.095 599.935 626.014 C 585.988 682.926 594.83 741.815 624.834 791.828 C 654.832 841.829 702.394 876.971 758.756 890.781 C 775.889 894.98 793.072 896.998 810.001 896.998 C 907.977 896.998 997.452 829.619 1021.994 729.432 C 1050.786 611.951 979.534 493.175 863.173 464.662 C 846.05 460.464 828.734 458.39 811.53 458.39 Z M 810.001 903.756 C 792.532 903.756 774.829 901.687 757.145 897.345 C 699.021 883.107 649.972 846.864 619.039 795.303 C 588.113 743.762 578.997 683.059 593.371 624.404 C 607.743 565.745 643.887 516.142 695.138 484.729 C 746.403 453.312 806.658 443.859 864.783 458.097 C 984.763 487.498 1058.237 609.942 1028.558 731.043 C 1003.261 834.297 911.004 903.746 810.001 903.756 Z M 564.118 617.236 L 564.14 617.236 L 564.118 617.236 Z M 811.611 424.581 C 766.125 424.581 721.311 437.15 681.358 461.633 C 623.968 496.804 583.496 552.35 567.4 618.041 C 534.175 753.628 616.406 890.72 750.704 923.63 C 770.487 928.471 790.32 930.795 809.848 930.795 C 922.928 930.805 1026.193 853.03 1054.527 737.402 C 1070.63 671.716 1060.418 603.753 1025.786 546.032 C 991.163 488.32 936.269 447.76 871.224 431.819 C 851.452 426.975 831.465 424.581 811.611 424.581 Z M 809.848 937.552 C 789.78 937.552 769.427 935.178 749.104 930.194 C 611.177 896.397 526.723 755.646 560.836 616.431 C 577.359 549.002 618.908 491.978 677.827 455.868 C 736.762 419.753 806.006 408.878 872.824 425.255 C 939.643 441.629 996.025 483.286 1031.585 542.553 C 1067.134 601.812 1077.612 671.585 1061.091 739.013 C 1032.013 857.708 925.955 937.542 809.848 937.552 Z " id="Compound Path" fill="rgb(33,22,84)"></path><path d=" M 128.37 819.448 L 188.943 973.52 C 163.059 1038.769 173.599 1097.821 230.204 1174.954 L 206.422 1218.25 C -21.028 1138.976 24.91 935.718 128.37 819.448 Z " id="Path" fill="rgb(33,22,84)"></path><path d=" M 255.419 1188.744 C 239.925 1181.028 227.056 1171.173 216.348 1159.972 C 202.909 1173.66 190.902 1188.479 180.092 1204.195 C 215.069 1221.654 247.134 1226.587 258.898 1223.346 C 292.692 1214.04 333.07 1215.865 333.07 1215.865 C 313.097 1181.609 255.419 1188.744 255.419 1188.744 Z " id="Path" fill="rgb(254,254,254)"></path><path d=" M 185.119 1202.89 C 218.859 1219.004 248.331 1222.765 258.001 1220.084 C 284.078 1212.909 313.536 1212.226 326.518 1212.348 C 305.262 1186.379 256.354 1192.036 255.832 1192.097 C 255.173 1192.178 254.506 1192.056 253.914 1191.761 C 239.97 1184.83 227.351 1175.769 216.359 1164.813 C 205.301 1176.34 194.814 1189.121 185.119 1202.89 Z M 250.083 1227.667 C 233.792 1227.667 206.858 1221.328 178.584 1207.212 C 177.708 1206.784 177.065 1205.989 176.822 1205.041 C 176.576 1204.093 176.754 1203.084 177.309 1202.279 C 188.533 1185.951 200.857 1170.928 213.938 1157.607 C 214.573 1156.955 215.442 1156.598 216.348 1156.598 C 216.356 1156.598 216.363 1156.598 216.372 1156.598 C 217.286 1156.598 218.159 1156.975 218.791 1157.638 C 229.575 1168.92 242.103 1178.215 256.041 1185.268 C 264.325 1184.433 316.4 1180.56 335.989 1214.173 C 336.611 1215.233 336.6 1216.558 335.96 1217.618 C 335.32 1218.678 334.135 1219.289 332.918 1219.248 C 332.52 1219.228 292.662 1217.556 259.794 1226.607 C 257.246 1227.31 253.967 1227.667 250.083 1227.667 Z " id="Compound Path" fill="rgb(33,22,84)"></path><path d=" M 560.206 937.746 C 580.697 934.974 618.244 923.936 596.992 879.947 C 594.953 875.728 589.82 874.016 585.605 876.064 C 572.638 882.363 552.399 904.092 548.352 925.312 C 547.004 932.375 553.078 938.704 560.206 937.746 Z " id="Path" fill="rgb(254,254,254)"></path><path d=" M 589.351 878.571 C 588.574 878.571 587.801 878.745 587.083 879.101 C 574.897 885.023 555.53 905.702 551.671 925.944 C 551.239 928.206 551.913 930.479 553.522 932.181 C 555.154 933.904 557.431 934.709 559.752 934.393 C 570.654 932.925 590.002 928.471 597.099 915.263 C 601.714 906.681 600.654 895.296 593.951 881.415 C 593.369 880.212 592.344 879.305 591.064 878.867 C 590.505 878.673 589.926 878.571 589.351 878.571 Z M 560.206 937.746 L 560.227 937.746 L 560.206 937.746 Z M 558.805 941.211 C 554.991 941.211 551.283 939.642 548.616 936.829 C 545.494 933.537 544.188 929.103 545.031 924.68 C 549.452 901.503 570.954 879.428 584.128 873.017 C 587.003 871.62 590.254 871.427 593.279 872.477 C 596.267 873.516 598.667 875.646 600.035 878.48 C 607.733 894.41 608.749 907.863 603.052 918.463 C 594.962 933.516 575.534 939.081 560.658 941.089 C 560.041 941.171 559.421 941.211 558.805 941.211 Z " id="Compound Path" fill="rgb(33,22,84)"></path><path d=" M 1515.938 1714.089 L 1526.721 1790.529 L 1491.426 1790.529 L 1468.413 1707.485 L 1515.938 1714.089 Z " id="Path" fill="rgb(254,254,254)"></path><path d=" M 1493.995 1787.155 L 1522.838 1787.155 L 1512.952 1717.086 L 1473.04 1711.541 L 1493.995 1787.155 Z M 1526.721 1793.913 L 1491.426 1793.913 C 1489.908 1793.913 1488.573 1792.893 1488.165 1791.436 L 1465.162 1708.392 C 1464.856 1707.291 1465.121 1706.119 1465.875 1705.263 C 1466.619 1704.407 1467.75 1703.979 1468.871 1704.142 L 1516.407 1710.736 C 1517.905 1710.95 1519.077 1712.122 1519.291 1713.61 L 1530.074 1790.06 C 1530.207 1791.028 1529.911 1792.007 1529.279 1792.751 C 1528.637 1793.485 1527.7 1793.913 1526.721 1793.913 Z " id="Compound Path" fill="rgb(33,22,84)"></path><path d=" M 1370.499 1852.832 L 1531.654 1852.832 C 1540.052 1852.832 1546.494 1844.383 1545.271 1834.946 C 1542.498 1813.532 1537.606 1778.798 1533.376 1764.621 C 1527.068 1743.442 1506.674 1777.177 1506.674 1777.177 L 1484.17 1755.652 C 1484.17 1755.652 1388.528 1801.108 1364.139 1838.329 C 1360.215 1844.322 1363.925 1852.832 1370.499 1852.832 Z " id="Path" fill="rgb(254,254,254)"></path><path d=" M 1483.528 1759.708 C 1469.452 1766.598 1388.589 1807.183 1366.962 1840.184 C 1365.657 1842.172 1365.555 1844.832 1366.707 1846.952 C 1367.115 1847.706 1368.297 1849.459 1370.499 1849.459 L 1531.654 1849.459 C 1534.355 1849.459 1536.913 1848.236 1538.86 1846.024 C 1541.316 1843.221 1542.437 1839.348 1541.917 1835.384 C 1539.329 1815.387 1534.355 1779.725 1530.135 1765.579 C 1529.32 1762.827 1528.23 1761.166 1527.139 1761.023 C 1523.419 1760.554 1515.031 1769.9 1509.568 1778.93 C 1509.038 1779.807 1508.141 1780.388 1507.122 1780.531 C 1506.103 1780.663 1505.084 1780.327 1504.34 1779.624 L 1483.528 1759.708 Z M 1531.654 1856.216 L 1370.499 1856.216 C 1366.442 1856.216 1362.804 1853.954 1360.755 1850.162 C 1358.411 1845.82 1358.625 1840.582 1361.316 1836.474 C 1385.929 1798.897 1478.778 1754.47 1482.722 1752.594 C 1483.986 1751.993 1485.495 1752.238 1486.504 1753.206 L 1506.052 1771.898 C 1510.506 1765.294 1519.811 1753.308 1527.995 1754.327 C 1532.021 1754.837 1534.926 1757.976 1536.618 1763.653 C 1540.745 1777.524 1545.423 1809.843 1548.624 1834.517 C 1549.388 1840.408 1547.676 1846.228 1543.935 1850.488 C 1540.684 1854.178 1536.322 1856.216 1531.654 1856.216 Z " id="Compound Path" fill="rgb(33,22,84)"></path><path d=" M 1530.818 1842.284 L 1380.273 1842.284 C 1378.408 1842.284 1376.889 1840.765 1376.889 1838.9 C 1376.889 1837.035 1378.408 1835.526 1380.273 1835.526 L 1530.818 1835.526 C 1532.683 1835.526 1534.192 1837.035 1534.192 1838.9 C 1534.192 1840.765 1532.683 1842.284 1530.818 1842.284 Z " id="Path" fill="rgb(33,22,84)"></path><path d=" M 1712.083 1657.666 C 1715.415 1666.207 1753.044 1753.644 1753.044 1753.644 L 1724.721 1789.112 L 1705.152 1766.252 L 1666.514 1666.207 L 1712.083 1657.666 Z " id="Path" fill="rgb(254,254,254)"></path><path d=" M 1708.087 1764.488 L 1724.639 1783.812 L 1749.13 1753.124 C 1743.922 1741.006 1716.333 1676.837 1709.993 1661.499 L 1671.131 1668.786 L 1708.087 1764.488 Z M 1724.721 1792.486 C 1723.742 1792.486 1722.805 1792.058 1722.162 1791.304 L 1702.584 1768.443 C 1702.329 1768.158 1702.135 1767.821 1701.993 1767.464 L 1663.365 1667.43 C 1662.998 1666.493 1663.08 1665.443 1663.569 1664.566 C 1664.058 1663.69 1664.904 1663.078 1665.893 1662.885 L 1711.461 1654.354 C 1713.051 1654.048 1714.641 1654.925 1715.232 1656.443 C 1718.504 1664.831 1755.765 1751.432 1756.142 1752.309 C 1756.632 1753.461 1756.458 1754.775 1755.684 1755.754 L 1727.371 1791.222 C 1726.739 1792.007 1725.791 1792.476 1724.782 1792.486 C 1724.761 1792.486 1724.741 1792.486 1724.721 1792.486 Z " id="Compound Path" fill="rgb(33,22,84)"></path><path d=" M 1774.427 1747.427 C 1779.441 1752.289 1781.092 1759.647 1778.667 1766.19 C 1770.421 1788.46 1748.121 1837.82 1708.383 1852.333 C 1676.747 1863.881 1655.089 1863.932 1643.012 1862.209 C 1637.284 1861.394 1634.328 1854.901 1637.375 1849.979 C 1650.615 1828.627 1681.812 1775.903 1684.656 1748.711 C 1688.274 1714.109 1729.419 1755.397 1729.419 1755.397 L 1751.576 1725.3 L 1774.427 1747.427 Z " id="Path" fill="rgb(254,254,254)"></path><path d=" M 1695.714 1738.264 C 1694.828 1738.264 1694.012 1738.387 1693.268 1738.642 C 1690.404 1739.661 1688.631 1743.167 1688.019 1749.068 C 1685.104 1776.933 1653.642 1830.166 1640.25 1851.762 C 1639.393 1853.138 1639.302 1854.779 1639.985 1856.257 C 1640.657 1857.694 1641.931 1858.642 1643.491 1858.866 C 1655.68 1860.599 1676.635 1860.324 1707.221 1849.153 C 1745.961 1835.007 1767.873 1785.606 1775.497 1765.018 C 1777.464 1759.719 1776.119 1753.766 1772.073 1749.853 L 1752.005 1730.417 L 1732.14 1757.395 C 1731.559 1758.19 1730.652 1758.689 1729.674 1758.761 C 1728.695 1758.811 1727.727 1758.475 1727.024 1757.782 C 1718.993 1749.73 1704.286 1738.264 1695.714 1738.264 Z M 1655.262 1866.408 C 1650.319 1866.408 1646.079 1866.062 1642.533 1865.552 C 1638.741 1865.012 1635.5 1862.607 1633.859 1859.121 C 1632.218 1855.584 1632.453 1851.507 1634.501 1848.195 C 1647.649 1826.996 1678.52 1774.833 1681.293 1748.365 C 1682.21 1739.651 1685.482 1734.228 1691.016 1732.272 C 1703.134 1727.981 1721.704 1743.554 1728.981 1750.291 L 1748.855 1723.303 C 1749.436 1722.518 1750.323 1722.018 1751.291 1721.937 C 1752.27 1721.866 1753.228 1722.202 1753.931 1722.875 L 1776.771 1745.001 C 1782.744 1750.78 1784.731 1759.556 1781.836 1767.363 C 1773.887 1788.827 1750.924 1840.388 1709.535 1855.503 C 1686.378 1863.962 1668.349 1866.408 1655.262 1866.408 Z " id="Compound Path" fill="rgb(33,22,84)"></path><path d=" M 1660.521 1849.989 C 1658.88 1849.989 1657.443 1848.796 1657.189 1847.125 C 1656.903 1845.28 1658.167 1843.558 1660.012 1843.272 C 1743.107 1830.471 1763.165 1760.014 1763.358 1759.311 C 1763.848 1757.507 1765.703 1756.447 1767.496 1756.926 C 1769.3 1757.415 1770.36 1759.27 1769.881 1761.064 C 1769.677 1761.818 1748.6 1836.464 1661.041 1849.948 C 1660.868 1849.979 1660.695 1849.989 1660.521 1849.989 Z " id="Path" fill="rgb(33,22,84)"></path><path d=" M 1700.943 1802.637 C 1700.433 1802.637 1699.913 1802.525 1699.424 1802.27 L 1671.315 1788.083 C 1669.653 1787.247 1668.981 1785.209 1669.827 1783.547 C 1670.662 1781.886 1672.701 1781.213 1674.362 1782.049 L 1702.472 1796.247 C 1704.143 1797.082 1704.805 1799.121 1703.97 1800.782 C 1703.368 1801.954 1702.186 1802.637 1700.943 1802.637 Z " id="Path" fill="rgb(33,22,84)"></path><path d=" M 1468.413 1809.975 C 1467.302 1809.975 1466.222 1809.425 1465.579 1808.426 L 1446.306 1778.614 C 1445.297 1777.045 1445.746 1774.956 1447.315 1773.936 C 1448.875 1772.917 1450.974 1773.376 1451.983 1774.945 L 1471.246 1804.757 C 1472.265 1806.326 1471.817 1808.416 1470.247 1809.435 C 1469.677 1809.802 1469.045 1809.975 1468.413 1809.975 Z " id="Path" fill="rgb(33,22,84)"></path><path d=" M 1577.457 1100.491 C 1577.457 1100.491 1678.857 1060.569 1643.603 1042.56 C 1614.617 1027.741 1532.286 1056.289 1532.286 1056.289 L 1577.457 1100.491 Z " id="Path" fill="rgb(219,202,252)"></path><path d=" M 1548.348 1037.78 C 1548.348 1037.78 1625.726 1100.491 1643.776 1165.21 C 1658.779 1218.983 1686.898 1532.804 1686.898 1532.804 C 1686.898 1532.804 1731.896 1658.013 1734.148 1694.429 C 1734.148 1694.429 1698.446 1719.899 1671.029 1715.985 L 1608.481 1564.42 C 1608.481 1564.42 1594.681 1546.125 1587.955 1524.855 C 1581.228 1503.584 1524.367 1303.485 1524.367 1303.485 C 1524.367 1303.485 1519.77 1599.389 1528.76 1725.3 C 1528.76 1725.3 1487.971 1731.548 1463.623 1726.248 C 1463.623 1726.248 1454.297 1623.533 1443.218 1598.39 C 1432.14 1573.256 1429.775 1533.875 1433.322 1496.154 C 1436.858 1458.423 1399.607 1244.412 1409.259 1055.565 L 1548.348 1037.78 Z " id="Path" fill="rgb(33,22,84)"></path><path d=" M 1607.839 1145.458 C 1607.839 1145.458 1607.829 1145.458 1607.819 1145.458 C 1580.453 1145.295 1560.273 1138.344 1547.839 1124.81 C 1533.886 1109.623 1535.119 1091.869 1535.18 1091.115 C 1535.333 1089.26 1536.944 1087.904 1538.819 1088.016 C 1540.674 1088.159 1542.06 1089.78 1541.917 1091.645 C 1541.907 1091.798 1540.919 1107.361 1552.904 1120.325 C 1564.024 1132.372 1582.522 1138.548 1607.859 1138.701 C 1609.725 1138.711 1611.233 1140.23 1611.223 1142.095 C 1611.213 1143.95 1609.694 1145.458 1607.839 1145.458 Z " id="Path" fill="rgb(254,254,254)"></path><path d=" M 1666.524 1607.124 C 1666.412 1607.124 1666.3 1607.114 1666.188 1607.104 C 1665.026 1606.992 1637.426 1603.965 1615.106 1574.724 C 1613.975 1573.246 1614.26 1571.126 1615.748 1569.995 C 1617.226 1568.864 1619.346 1569.139 1620.477 1570.627 C 1641.034 1597.554 1666.586 1600.357 1666.851 1600.377 C 1668.706 1600.561 1670.061 1602.212 1669.878 1604.067 C 1669.704 1605.82 1668.237 1607.124 1666.524 1607.124 Z " id="Path" fill="rgb(254,254,254)"></path><path d=" M 1538.513 1378.386 C 1537.015 1378.386 1535.639 1377.377 1535.242 1375.858 L 1499.957 1240.753 L 1466.853 1223.488 C 1465.192 1222.622 1464.55 1220.583 1465.416 1218.922 C 1466.283 1217.271 1468.321 1216.629 1469.972 1217.495 L 1504.411 1235.454 C 1505.257 1235.892 1505.879 1236.666 1506.113 1237.594 L 1541.785 1374.156 C 1542.254 1375.96 1541.173 1377.805 1539.369 1378.274 C 1539.084 1378.355 1538.799 1378.386 1538.513 1378.386 Z " id="Path" fill="rgb(254,254,254)"></path><path d=" M 1429.367 834.511 C 1429.367 834.511 1286.425 958.996 1138.274 860.236 L 1118.064 816.737 L 1062.691 793.723 C 1062.691 793.723 1057.207 799.308 1074.391 810.591 C 1090.087 820.915 1093.195 828.661 1091.503 835.49 C 1089.822 842.308 1090.668 868.655 1124.821 870.642 C 1124.821 870.642 1188.5 1025.173 1416.546 956.988 L 1429.367 834.511 Z " id="Path" fill="rgb(254,254,254)"></path><path d=" M 1065.31 795.833 L 1065.31 795.833 L 1065.31 795.833 Z M 1066.217 798.84 C 1067.501 800.888 1070.345 803.895 1076.246 807.768 C 1091.269 817.644 1097.16 826.704 1094.785 836.295 C 1094.143 838.894 1093.603 848.036 1099.321 855.792 C 1104.417 862.713 1113.07 866.575 1125.025 867.268 C 1126.319 867.35 1127.451 868.155 1127.95 869.358 C 1128.103 869.735 1144.165 907.639 1187.379 936.798 C 1227.036 963.562 1298.39 988.217 1413.427 954.389 L 1425.168 842.247 C 1412.5 851.981 1382.026 873.221 1340.483 887.601 C 1290.267 904.979 1214.092 914.834 1136.409 863.039 C 1135.889 862.702 1135.472 862.213 1135.217 861.653 L 1115.556 819.356 L 1066.217 798.84 Z M 1308.847 977.597 C 1250.794 977.597 1210.067 960.342 1183.272 942.18 C 1143.656 915.334 1126.452 882.23 1122.558 873.873 C 1109.553 872.711 1099.912 867.992 1093.878 859.798 C 1087.365 850.961 1086.927 839.923 1088.232 834.675 C 1089.231 830.628 1088.69 824.034 1072.536 813.424 C 1063.781 807.666 1059.073 802.213 1058.532 797.219 C 1058.155 793.713 1059.929 791.715 1060.285 791.348 C 1061.243 790.37 1062.721 790.064 1063.985 790.604 L 1119.358 813.618 C 1120.143 813.944 1120.765 814.545 1121.131 815.32 L 1140.945 857.943 C 1201.179 897.783 1267.498 905.641 1338.057 881.282 C 1391.127 862.967 1426.799 832.269 1427.156 831.963 C 1428.195 831.056 1429.704 830.873 1430.927 831.515 C 1432.16 832.157 1432.873 833.482 1432.731 834.858 L 1419.909 957.345 C 1419.767 958.701 1418.819 959.842 1417.514 960.229 C 1375.992 972.643 1339.933 977.597 1308.847 977.597 Z " id="Compound Path" fill="rgb(33,22,84)"></path><path d=" M 1819.628 1424.963 L 1629.558 1423.281 C 1618.143 1423.18 1609.704 1412.743 1612.099 1401.705 L 1642.166 1263.278 C 1644.693 1251.638 1655.15 1243.363 1667.177 1243.464 L 1830.218 1244.912 L 1819.628 1424.963 Z " id="Path" fill="rgb(219,202,252)"></path><path d=" M 1666.953 1246.848 C 1656.648 1246.848 1647.629 1254.034 1645.468 1263.991 L 1615.401 1402.429 C 1614.484 1406.638 1615.514 1411.01 1618.225 1414.394 C 1620.987 1417.849 1625.125 1419.857 1629.589 1419.898 L 1816.438 1421.559 L 1826.63 1248.265 L 1667.146 1246.848 C 1667.085 1246.848 1667.014 1246.848 1666.953 1246.848 Z M 1819.628 1428.347 C 1819.618 1428.347 1819.608 1428.347 1819.598 1428.347 L 1629.528 1426.655 C 1623.025 1426.604 1616.981 1423.669 1612.935 1418.614 C 1608.96 1413.63 1607.452 1407.209 1608.797 1400.992 L 1638.863 1262.564 C 1641.717 1249.417 1653.683 1239.969 1667.207 1240.091 L 1830.248 1241.538 C 1831.166 1241.538 1832.052 1241.925 1832.684 1242.608 C 1833.316 1243.281 1833.642 1244.188 1833.591 1245.116 L 1823.002 1425.167 C 1822.89 1426.951 1821.412 1428.347 1819.628 1428.347 Z " id="Compound Path" fill="rgb(33,22,84)"></path><path d=" M 1843.967 1425.177 L 1807.082 1424.851 C 1795.667 1424.749 1787.228 1414.313 1789.623 1403.285 L 1822.737 1250.813 C 1823.491 1247.348 1826.6 1244.881 1830.187 1244.912 L 1839.666 1244.993 C 1843.6 1245.034 1846.851 1248.051 1847.136 1251.924 L 1858.735 1409.614 C 1859.357 1418.073 1852.538 1425.259 1843.967 1425.177 Z " id="Path" fill="rgb(219,202,252)"></path><path d=" M 1830.116 1248.295 C 1828.159 1248.295 1826.447 1249.651 1826.039 1251.526 L 1792.925 1403.998 C 1792.008 1408.218 1793.037 1412.58 1795.738 1415.974 C 1798.5 1419.429 1802.648 1421.437 1807.102 1421.478 L 1843.987 1421.804 C 1843.977 1421.793 1844.058 1421.804 1844.099 1421.804 C 1847.279 1421.804 1850.225 1420.53 1852.385 1418.226 C 1854.536 1415.933 1855.586 1412.967 1855.361 1409.859 L 1843.763 1252.179 C 1843.61 1250.059 1841.796 1248.397 1839.635 1248.377 L 1830.157 1248.295 C 1830.146 1248.295 1830.126 1248.295 1830.116 1248.295 Z M 1844.089 1428.561 C 1844.038 1428.561 1843.987 1428.561 1843.926 1428.561 L 1807.051 1428.235 C 1800.539 1428.174 1794.495 1425.238 1790.459 1420.193 C 1786.474 1415.199 1784.965 1408.778 1786.321 1402.561 L 1819.435 1250.099 C 1820.515 1245.116 1824.999 1241.538 1830.116 1241.538 C 1830.146 1241.538 1830.187 1241.538 1830.218 1241.538 L 1839.696 1241.62 C 1845.353 1241.671 1850.092 1246.084 1850.5 1251.679 L 1862.098 1409.359 C 1862.465 1414.302 1860.722 1419.215 1857.318 1422.843 C 1853.914 1426.482 1849.093 1428.561 1844.089 1428.561 Z " id="Compound Path" fill="rgb(33,22,84)"></path><path d=" M 1794.77 1320.781 C 1794.729 1320.781 1794.689 1320.781 1794.648 1320.781 L 1645.835 1319.456 C 1643.97 1319.446 1642.471 1317.917 1642.482 1316.052 C 1642.502 1314.197 1644.01 1312.709 1645.865 1312.709 C 1645.875 1312.709 1645.886 1312.709 1645.896 1312.709 L 1794.709 1314.024 C 1797.573 1314.125 1800.049 1312.158 1800.732 1309.427 L 1814.328 1254.747 C 1814.787 1252.943 1816.611 1251.832 1818.426 1252.291 C 1820.24 1252.739 1821.341 1254.574 1820.892 1256.388 L 1807.286 1311.058 C 1805.859 1316.796 1800.722 1320.781 1794.77 1320.781 Z " id="Path" fill="rgb(33,22,84)"></path><path d=" M 1737.247 1316.898 L 1732.925 1333.49 C 1732.232 1336.303 1729.674 1338.27 1726.749 1338.24 L 1697.274 1337.975 C 1694.063 1337.954 1691.77 1334.907 1692.657 1331.849 L 1697.111 1316.541 L 1737.247 1316.898 Z " id="Path" fill="rgb(254,254,254)"></path><path d=" M 1699.638 1319.935 L 1695.898 1332.797 C 1695.735 1333.368 1695.969 1333.796 1696.122 1334.01 C 1696.285 1334.224 1696.652 1334.591 1697.304 1334.601 L 1726.779 1334.856 C 1728.155 1334.968 1729.327 1333.979 1729.654 1332.675 L 1732.884 1320.23 L 1699.638 1319.935 Z M 1726.81 1341.623 C 1726.779 1341.623 1726.749 1341.623 1726.718 1341.623 L 1697.243 1341.358 C 1694.634 1341.328 1692.249 1340.125 1690.7 1338.036 C 1689.161 1335.977 1688.692 1333.378 1689.405 1330.912 L 1693.859 1315.593 C 1694.277 1314.146 1695.602 1313.157 1697.111 1313.157 C 1697.121 1313.157 1697.121 1313.157 1697.131 1313.157 L 1737.277 1313.514 C 1738.317 1313.524 1739.295 1314.013 1739.927 1314.839 C 1740.559 1315.664 1740.773 1316.735 1740.518 1317.744 L 1736.197 1334.346 C 1735.137 1338.627 1731.274 1341.623 1726.81 1341.623 Z " id="Compound Path" fill="rgb(33,22,84)"></path><path d=" M 1780.277 1414.058 C 1780.267 1414.058 1780.257 1414.058 1780.246 1414.058 L 1622.149 1412.661 C 1620.283 1412.641 1618.775 1411.122 1618.795 1409.247 C 1618.816 1407.392 1620.324 1405.904 1622.179 1405.904 C 1622.189 1405.904 1622.2 1405.904 1622.21 1405.904 L 1780.308 1407.3 C 1782.173 1407.321 1783.671 1408.85 1783.651 1410.715 C 1783.64 1412.57 1782.122 1414.058 1780.277 1414.058 Z " id="Path" fill="rgb(33,22,84)"></path><path d=" M 1704.795 1237.502 L 1692.453 1237.4 C 1689.12 1237.37 1686.389 1240.02 1686.358 1243.312 L 1710.778 1243.536 C 1710.809 1240.234 1708.128 1237.533 1704.795 1237.502 Z " id="Path" fill="rgb(33,22,84)"></path><path d=" M 1803.698 1238.379 L 1791.356 1238.277 C 1788.023 1238.246 1785.292 1240.896 1785.261 1244.188 L 1809.681 1244.412 C 1809.711 1241.11 1807.031 1238.409 1803.698 1238.379 Z " id="Path" fill="rgb(33,22,84)"></path><path d=" M 1800.478 1238.032 L 1802.567 1226.362 C 1804.055 1218.086 1798.47 1211.319 1790.092 1211.248 L 1716.088 1210.585 C 1707.71 1210.514 1699.72 1217.159 1698.232 1225.435 L 1696.142 1237.105 L 1702.92 1238.756 L 1704.377 1229.226 C 1705.539 1222.785 1710.809 1216.456 1717.331 1216.517 L 1786.729 1217.139 C 1793.251 1217.19 1797.593 1222.459 1796.442 1228.9 L 1794.811 1237.981 L 1800.478 1238.032 Z " id="Path" fill="rgb(33,22,84)"></path><path d=" M 1786.27 1206.376 L 1718.269 1205.764 C 1715.527 1205.744 1712.918 1208.088 1712.429 1211.013 L 1711.369 1217.342 C 1710.88 1220.257 1712.704 1222.652 1715.446 1222.673 L 1783.447 1223.274 C 1786.188 1223.305 1788.808 1220.95 1789.297 1218.036 L 1790.347 1211.706 C 1790.836 1208.781 1789.012 1206.396 1786.27 1206.376 Z " id="Path" fill="rgb(133,104,204)"></path><path d=" M 1806.858 1414.292 C 1805.665 1414.292 1804.514 1413.67 1803.892 1412.549 C 1802.995 1410.919 1803.586 1408.86 1805.217 1407.963 L 1829.097 1394.775 L 1830.33 1255.674 C 1830.35 1253.83 1831.859 1252.331 1833.714 1252.331 C 1833.724 1252.331 1833.734 1252.331 1833.744 1252.331 C 1835.609 1252.352 1837.108 1253.87 1837.087 1255.746 L 1835.834 1396.813 C 1835.823 1398.026 1835.161 1399.147 1834.091 1399.738 L 1808.488 1413.874 C 1807.969 1414.16 1807.408 1414.292 1806.858 1414.292 Z " id="Path" fill="rgb(254,254,254)"></path><path d=" M 1714.947 1172.253 C 1714.947 1172.253 1698.874 991.947 1571.545 872.558 L 1633.604 807.228 C 1633.604 807.228 1773.622 969.484 1741.904 1166.036 C 1740.661 1173.7 1744.462 1181.304 1751.24 1185.075 C 1759.74 1189.794 1768.689 1193.942 1776.088 1200.383 C 1781.123 1204.766 1786.331 1211.706 1785.251 1218.81 C 1783.946 1227.32 1775.283 1230.572 1767.751 1231.601 C 1761.789 1232.416 1747.214 1233.721 1742.822 1228.492 C 1741.537 1226.964 1741.344 1224.834 1740.977 1222.866 C 1740.049 1217.934 1737.277 1212.868 1732.772 1210.361 C 1727.258 1207.293 1720.603 1209.321 1714.682 1207.864 L 1714.947 1172.253 Z " id="Path" fill="rgb(254,254,254)"></path><path d=" M 1718.086 1204.99 C 1719.38 1205.092 1720.746 1205.102 1722.162 1205.112 C 1726.015 1205.143 1730.387 1205.173 1734.413 1207.405 C 1739.377 1210.167 1743.076 1215.712 1744.299 1222.255 L 1744.462 1223.172 C 1744.687 1224.477 1744.901 1225.71 1745.41 1226.322 C 1747.632 1228.961 1756.418 1229.746 1767.292 1228.248 C 1773.397 1227.412 1780.878 1225.007 1781.908 1218.29 C 1782.947 1211.441 1776.017 1204.806 1773.866 1202.931 C 1768.291 1198.08 1761.819 1194.604 1754.96 1190.935 C 1753.166 1189.977 1751.373 1189.009 1749.599 1188.03 C 1741.548 1183.556 1737.114 1174.506 1738.561 1165.506 C 1754.807 1064.901 1724.751 973.51 1696.693 914.559 C 1670.805 860.205 1641.819 822.668 1633.431 812.313 L 1576.325 872.426 C 1700.892 991.346 1718.157 1170.143 1718.31 1171.947 C 1718.32 1172.06 1718.33 1172.172 1718.33 1172.274 L 1718.086 1204.99 Z M 1757.264 1235.759 C 1750.527 1235.759 1743.576 1234.638 1740.233 1230.663 C 1738.551 1228.666 1738.133 1226.26 1737.807 1224.324 L 1737.654 1223.498 C 1736.808 1218.983 1734.311 1215.08 1731.131 1213.317 C 1728.614 1211.91 1725.454 1211.89 1722.111 1211.869 C 1719.431 1211.849 1716.669 1211.839 1713.876 1211.146 C 1712.358 1210.769 1711.288 1209.403 1711.308 1207.844 L 1711.573 1172.396 C 1710.961 1166.23 1692.534 990.632 1569.232 875.014 C 1568.569 874.403 1568.192 873.547 1568.162 872.65 C 1568.141 871.753 1568.467 870.876 1569.089 870.224 L 1631.158 804.904 C 1631.811 804.211 1632.758 803.844 1633.686 803.844 C 1634.644 803.874 1635.541 804.292 1636.163 805.016 C 1636.519 805.424 1671.824 846.671 1702.706 911.471 C 1731.223 971.329 1761.768 1064.177 1745.237 1166.576 C 1744.238 1172.783 1747.306 1179.021 1752.881 1182.119 C 1754.624 1183.087 1756.387 1184.035 1758.15 1184.973 C 1765.03 1188.662 1772.154 1192.474 1778.31 1197.835 C 1781.908 1200.964 1790.112 1209.332 1788.584 1219.32 C 1787.289 1227.769 1780.063 1233.323 1768.21 1234.944 C 1765.173 1235.362 1761.259 1235.759 1757.264 1235.759 Z " id="Compound Path" fill="rgb(33,22,84)"></path><path d=" M 1650.839 1052.487 C 1650.839 1052.487 1603.538 1039.136 1537.198 1074.043 C 1470.859 1108.941 1392.116 1091.38 1392.116 1091.38 C 1392.116 1091.38 1381.088 932.721 1414.028 844.999 C 1419.206 831.189 1432.843 817.155 1447.254 814.005 C 1478.136 807.248 1500.089 797.352 1533.692 795.099 C 1558.867 793.407 1608.104 797.831 1623.494 801.174 C 1639.026 804.547 1648.505 811.192 1644.428 821.435 L 1618.683 884.462 C 1605.76 916.873 1607.197 953.36 1623.076 984.435 C 1623.209 984.7 1623.341 984.955 1623.474 985.21 C 1636.713 1010.914 1653.132 1021.697 1650.839 1052.487 Z " id="Path" fill="rgb(133,104,204)"></path><path d=" M 1524.713 756.991 C 1532.062 764.136 1541.255 765.542 1545.699 766.205 C 1554.994 767.611 1594.722 769.792 1621.466 739.869 C 1647.649 710.557 1650.319 662.856 1635.368 653.127 C 1624.635 646.141 1607.584 660.532 1591.42 649.685 C 1584.255 644.882 1585.947 640.953 1578.333 635.858 C 1565.512 627.274 1549.031 630.597 1536.414 633.317 C 1513.38 638.283 1514.134 644.646 1493.872 649.717 C 1465.019 656.937 1448.6 647.757 1442.953 657.048 C 1438.448 664.452 1444.207 677.954 1451.994 685.78 C 1468.107 701.985 1488.073 688.297 1500.467 703.249 C 1508.172 712.534 1507.061 725.264 1518.527 748.277 C 1519.444 750.112 1521.217 753.587 1524.713 756.991 Z " id="Path" fill="rgb(33,22,84)"></path><path d=" M 1502.189 779.414 C 1503.055 776.448 1503.962 773.166 1504.829 769.731 C 1498.316 772.412 1491.487 772.84 1487.451 770.628 C 1482.478 767.897 1481.571 762.515 1479.563 756.084 C 1478.717 753.394 1477.963 750.254 1475.15 747.513 C 1473.662 746.055 1471.98 745.097 1470.38 744.455 C 1468.403 743.66 1467.353 741.5 1467.893 739.441 L 1468.413 738.218 C 1472.5 728.586 1474.661 718.252 1474.773 707.795 L 1474.997 687.146 C 1486.269 682.671 1490.377 683.436 1491.916 685.219 C 1492.476 685.882 1493.312 686.31 1493.271 689.49 C 1493.088 704.829 1506.877 703.249 1518.415 700.426 C 1529.962 697.603 1525.906 719.006 1525.906 719.006 C 1525.906 719.006 1533.071 709.752 1541.031 717.783 C 1546.738 723.541 1535.639 732.969 1528.882 737.851 L 1533.448 782.196 C 1534.65 793.866 1545.627 793.764 1556.645 797.8 L 1586.365 805.23 C 1586.365 805.23 1508.651 839.781 1460.769 815.351 L 1486.422 806.575 C 1495.197 801.846 1499.906 787.272 1502.189 779.414 Z " id="Path" fill="rgb(254,254,254)"></path><path d=" M 1502.189 779.414 L 1502.209 779.414 L 1502.189 779.414 Z M 1470.145 815.717 C 1505.96 828.478 1554.831 813.485 1575.327 805.954 L 1555.829 801.072 C 1555.707 801.051 1555.595 801.01 1555.483 800.97 C 1553.169 800.114 1550.805 799.451 1548.522 798.799 C 1540.032 796.394 1531.257 793.917 1530.095 782.543 L 1525.518 738.197 C 1525.396 736.995 1525.926 735.823 1526.905 735.109 C 1535.69 728.76 1539.033 724.01 1539.227 721.676 C 1539.267 721.167 1539.186 720.718 1538.636 720.168 C 1537.035 718.557 1535.507 717.793 1533.957 717.895 C 1531.511 718.027 1529.239 720.249 1528.566 721.085 C 1527.598 722.308 1525.926 722.716 1524.509 722.063 C 1523.093 721.421 1522.298 719.903 1522.583 718.374 C 1523.48 713.594 1523.623 705.919 1521.554 703.952 C 1521.37 703.779 1520.871 703.3 1519.22 703.708 C 1511.189 705.675 1501.18 707.305 1495.024 702.403 C 1491.549 699.641 1489.826 695.279 1489.898 689.449 C 1489.908 688.226 1489.755 687.849 1489.755 687.829 C 1489.561 687.666 1489.449 687.543 1489.347 687.421 C 1489.347 687.421 1487.472 686.137 1478.35 689.48 L 1478.156 707.835 C 1478.034 718.782 1475.802 729.453 1471.521 739.532 L 1471.134 740.45 C 1471.104 740.827 1471.307 741.184 1471.633 741.316 C 1473.896 742.223 1475.863 743.487 1477.504 745.087 C 1480.684 748.185 1481.734 751.61 1482.569 754.362 L 1482.784 755.075 C 1483.079 755.993 1483.344 756.9 1483.599 757.776 C 1485.148 763.025 1486.167 766.072 1489.082 767.673 C 1492.13 769.344 1497.939 768.916 1503.545 766.602 C 1504.727 766.113 1506.072 766.337 1507.04 767.173 C 1508.009 768.009 1508.416 769.313 1508.111 770.557 C 1507.316 773.676 1506.419 776.968 1505.44 780.351 C 1502.495 790.441 1497.501 804.445 1488.022 809.551 C 1487.859 809.633 1487.696 809.714 1487.513 809.776 L 1470.145 815.717 Z M 1502.678 827.53 C 1487.502 827.53 1472.357 825.064 1459.23 818.367 C 1458.017 817.746 1457.293 816.462 1457.395 815.116 C 1457.487 813.761 1458.384 812.599 1459.668 812.16 L 1485.046 803.477 C 1492.986 798.962 1497.46 783.562 1498.948 778.466 C 1499.315 777.222 1499.661 775.979 1499.998 774.766 C 1494.525 775.928 1489.408 775.551 1485.831 773.594 C 1480.327 770.577 1478.768 765.288 1477.117 759.682 C 1476.872 758.846 1476.617 757.98 1476.332 757.093 L 1476.108 756.329 C 1475.394 754.005 1474.732 751.814 1472.795 749.928 C 1471.786 748.95 1470.553 748.165 1469.116 747.584 C 1465.579 746.167 1463.653 742.295 1464.621 738.585 C 1464.662 738.422 1464.723 738.269 1464.784 738.116 L 1465.304 736.893 C 1469.238 727.628 1471.287 717.824 1471.399 707.754 L 1471.623 687.105 C 1471.633 685.739 1472.479 684.516 1473.753 684.007 C 1484.873 679.59 1491.263 679.285 1494.474 683.018 C 1495.85 684.475 1496.696 686.076 1496.655 689.531 C 1496.604 693.22 1497.45 695.697 1499.233 697.113 C 1503.137 700.222 1511.586 698.622 1517.609 697.144 C 1521.941 696.084 1524.673 697.603 1526.212 699.05 C 1529.34 702.026 1530.054 707.367 1529.993 711.912 C 1531.073 711.515 1532.245 711.229 1533.519 711.148 C 1535.965 710.995 1539.675 711.617 1543.436 715.408 C 1545.301 717.294 1546.167 719.648 1545.964 722.227 C 1545.556 727.19 1541 732.969 1532.439 739.431 L 1536.811 781.85 C 1537.484 788.372 1541.683 789.84 1550.367 792.296 C 1552.711 792.969 1555.147 793.652 1557.644 794.559 L 1587.18 801.948 C 1588.576 802.295 1589.595 803.497 1589.728 804.934 C 1589.85 806.371 1589.045 807.727 1587.73 808.308 C 1585.366 809.358 1543.874 827.53 1502.678 827.53 Z " id="Compound Path" fill="rgb(33,22,84)"></path><path d=" M 1502.801 773.105 C 1501.404 773.105 1500.089 772.228 1499.61 770.832 C 1498.999 769.069 1499.937 767.143 1501.7 766.531 C 1512.31 762.862 1517.171 746.81 1517.212 746.646 C 1517.742 744.863 1519.617 743.833 1521.411 744.363 C 1523.195 744.883 1524.224 746.759 1523.694 748.552 C 1523.47 749.347 1517.834 768.101 1503.911 772.921 C 1503.545 773.044 1503.167 773.105 1502.801 773.105 Z " id="Path" fill="rgb(33,22,84)"></path></g></svg> 